<svg version="1.1" xmlns="http://www.w3.org/2000/svg" xmlns:xlink="http://www.w3.org/1999/xlink" width="427.6689453125" height="588"><defs/><g><text fill="#eeeeee" stroke="none" font-family="Arial" font-size="24px" font-style="normal" font-weight="normal" text-decoration="none" x="0" y="0">UNREGISTERED</text><text fill="#eeeeee" stroke="none" font-family="Arial" font-size="24px" font-style="normal" font-weight="normal" text-decoration="none" x="0" y="30">UNREGISTERED</text><text fill="#eeeeee" stroke="none" font-family="Arial" font-size="24px" font-style="normal" font-weight="normal" text-decoration="none" x="0" y="60">UNREGISTERED</text><text fill="#eeeeee" stroke="none" font-family="Arial" font-size="24px" font-style="normal" font-weight="normal" text-decoration="none" x="0" y="90">UNREGISTERED</text><text fill="#eeeeee" stroke="none" font-family="Arial" font-size="24px" font-style="normal" font-weight="normal" text-decoration="none" x="0" y="120">UNREGISTERED</text><text fill="#eeeeee" stroke="none" font-family="Arial" font-size="24px" font-style="normal" font-weight="normal" text-decoration="none" x="0" y="150">UNREGISTERED</text><text fill="#eeeeee" stroke="none" font-family="Arial" font-size="24px" font-style="normal" font-weight="normal" text-decoration="none" x="0" y="180">UNREGISTERED</text><text fill="#eeeeee" stroke="none" font-family="Arial" font-size="24px" font-style="normal" font-weight="normal" text-decoration="none" x="0" y="210">UNREGISTERED</text><text fill="#eeeeee" stroke="none" font-family="Arial" font-size="24px" font-style="normal" font-weight="normal" text-decoration="none" x="0" y="240">UNREGISTERED</text><text fill="#eeeeee" stroke="none" font-family="Arial" font-size="24px" font-style="normal" font-weight="normal" text-decoration="none" x="0" y="270">UNREGISTERED</text><text fill="#eeeeee" stroke="none" font-family="Arial" font-size="24px" font-style="normal" font-weight="normal" text-decoration="none" x="0" y="300">UNREGISTERED</text><text fill="#eeeeee" stroke="none" font-family="Arial" font-size="24px" font-style="normal" font-weight="normal" text-decoration="none" x="0" y="330">UNREGISTERED</text><text fill="#eeeeee" stroke="none" font-family="Arial" font-size="24px" font-style="normal" font-weight="normal" text-decoration="none" x="0" y="360">UNREGISTERED</text><text fill="#eeeeee" stroke="none" font-family="Arial" font-size="24px" font-style="normal" font-weight="normal" text-decoration="none" x="0" y="390">UNREGISTERED</text><text fill="#eeeeee" stroke="none" font-family="Arial" font-size="24px" font-style="normal" font-weight="normal" text-decoration="none" x="0" y="420">UNREGISTERED</text><text fill="#eeeeee" stroke="none" font-family="Arial" font-size="24px" font-style="normal" font-weight="normal" text-decoration="none" x="0" y="450">UNREGISTERED</text><text fill="#eeeeee" stroke="none" font-family="Arial" font-size="24px" font-style="normal" font-weight="normal" text-decoration="none" x="0" y="480">UNREGISTERED</text><text fill="#eeeeee" stroke="none" font-family="Arial" font-size="24px" font-style="normal" font-weight="normal" text-decoration="none" x="0" y="510">UNREGISTERED</text><text fill="#eeeeee" stroke="none" font-family="Arial" font-size="24px" font-style="normal" font-weight="normal" text-decoration="none" x="0" y="540">UNREGISTERED</text><text fill="#eeeeee" stroke="none" font-family="Arial" font-size="24px" font-style="normal" font-weight="normal" text-decoration="none" x="0" y="570">UNREGISTERED</text><text fill="#eeeeee" stroke="none" font-family="Arial" font-size="24px" font-style="normal" font-weight="normal" text-decoration="none" x="200" y="0">UNREGISTERED</text><text fill="#eeeeee" stroke="none" font-family="Arial" font-size="24px" font-style="normal" font-weight="normal" text-decoration="none" x="200" y="30">UNREGISTERED</text><text fill="#eeeeee" stroke="none" font-family="Arial" font-size="24px" font-style="normal" font-weight="normal" text-decoration="none" x="200" y="60">UNREGISTERED</text><text fill="#eeeeee" stroke="none" font-family="Arial" font-size="24px" font-style="normal" font-weight="normal" text-decoration="none" x="200" y="90">UNREGISTERED</text><text fill="#eeeeee" stroke="none" font-family="Arial" font-size="24px" font-style="normal" font-weight="normal" text-decoration="none" x="200" y="120">UNREGISTERED</text><text fill="#eeeeee" stroke="none" font-family="Arial" font-size="24px" font-style="normal" font-weight="normal" text-decoration="none" x="200" y="150">UNREGISTERED</text><text fill="#eeeeee" stroke="none" font-family="Arial" font-size="24px" font-style="normal" font-weight="normal" text-decoration="none" x="200" y="180">UNREGISTERED</text><text fill="#eeeeee" stroke="none" font-family="Arial" font-size="24px" font-style="normal" font-weight="normal" text-decoration="none" x="200" y="210">UNREGISTERED</text><text fill="#eeeeee" stroke="none" font-family="Arial" font-size="24px" font-style="normal" font-weight="normal" text-decoration="none" x="200" y="240">UNREGISTERED</text><text fill="#eeeeee" stroke="none" font-family="Arial" font-size="24px" font-style="normal" font-weight="normal" text-decoration="none" x="200" y="270">UNREGISTERED</text><text fill="#eeeeee" stroke="none" font-family="Arial" font-size="24px" font-style="normal" font-weight="normal" text-decoration="none" x="200" y="300">UNREGISTERED</text><text fill="#eeeeee" stroke="none" font-family="Arial" font-size="24px" font-style="normal" font-weight="normal" text-decoration="none" x="200" y="330">UNREGISTERED</text><text fill="#eeeeee" stroke="none" font-family="Arial" font-size="24px" font-style="normal" font-weight="normal" text-decoration="none" x="200" y="360">UNREGISTERED</text><text fill="#eeeeee" stroke="none" font-family="Arial" font-size="24px" font-style="normal" font-weight="normal" text-decoration="none" x="200" y="390">UNREGISTERED</text><text fill="#eeeeee" stroke="none" font-family="Arial" font-size="24px" font-style="normal" font-weight="normal" text-decoration="none" x="200" y="420">UNREGISTERED</text><text fill="#eeeeee" stroke="none" font-family="Arial" font-size="24px" font-style="normal" font-weight="normal" text-decoration="none" x="200" y="450">UNREGISTERED</text><text fill="#eeeeee" stroke="none" font-family="Arial" font-size="24px" font-style="normal" font-weight="normal" text-decoration="none" x="200" y="480">UNREGISTERED</text><text fill="#eeeeee" stroke="none" font-family="Arial" font-size="24px" font-style="normal" font-weight="normal" text-decoration="none" x="200" y="510">UNREGISTERED</text><text fill="#eeeeee" stroke="none" font-family="Arial" font-size="24px" font-style="normal" font-weight="normal" text-decoration="none" x="200" y="540">UNREGISTERED</text><text fill="#eeeeee" stroke="none" font-family="Arial" font-size="24px" font-style="normal" font-weight="normal" text-decoration="none" x="200" y="570">UNREGISTERED</text><text fill="#eeeeee" stroke="none" font-family="Arial" font-size="24px" font-style="normal" font-weight="normal" text-decoration="none" x="400" y="0">UNREGISTERED</text><text fill="#eeeeee" stroke="none" font-family="Arial" font-size="24px" font-style="normal" font-weight="normal" text-decoration="none" x="400" y="30">UNREGISTERED</text><text fill="#eeeeee" stroke="none" font-family="Arial" font-size="24px" font-style="normal" font-weight="normal" text-decoration="none" x="400" y="60">UNREGISTERED</text><text fill="#eeeeee" stroke="none" font-family="Arial" font-size="24px" font-style="normal" font-weight="normal" text-decoration="none" x="400" y="90">UNREGISTERED</text><text fill="#eeeeee" stroke="none" font-family="Arial" font-size="24px" font-style="normal" font-weight="normal" text-decoration="none" x="400" y="120">UNREGISTERED</text><text fill="#eeeeee" stroke="none" font-family="Arial" font-size="24px" font-style="normal" font-weight="normal" text-decoration="none" x="400" y="150">UNREGISTERED</text><text fill="#eeeeee" stroke="none" font-family="Arial" font-size="24px" font-style="normal" font-weight="normal" text-decoration="none" x="400" y="180">UNREGISTERED</text><text fill="#eeeeee" stroke="none" font-family="Arial" font-size="24px" font-style="normal" font-weight="normal" text-decoration="none" x="400" y="210">UNREGISTERED</text><text fill="#eeeeee" stroke="none" font-family="Arial" font-size="24px" font-style="normal" font-weight="normal" text-decoration="none" x="400" y="240">UNREGISTERED</text><text fill="#eeeeee" stroke="none" font-family="Arial" font-size="24px" font-style="normal" font-weight="normal" text-decoration="none" x="400" y="270">UNREGISTERED</text><text fill="#eeeeee" stroke="none" font-family="Arial" font-size="24px" font-style="normal" font-weight="normal" text-decoration="none" x="400" y="300">UNREGISTERED</text><text fill="#eeeeee" stroke="none" font-family="Arial" font-size="24px" font-style="normal" font-weight="normal" text-decoration="none" x="400" y="330">UNREGISTERED</text><text fill="#eeeeee" stroke="none" font-family="Arial" font-size="24px" font-style="normal" font-weight="normal" text-decoration="none" x="400" y="360">UNREGISTERED</text><text fill="#eeeeee" stroke="none" font-family="Arial" font-size="24px" font-style="normal" font-weight="normal" text-decoration="none" x="400" y="390">UNREGISTERED</text><text fill="#eeeeee" stroke="none" font-family="Arial" font-size="24px" font-style="normal" font-weight="normal" text-decoration="none" x="400" y="420">UNREGISTERED</text><text fill="#eeeeee" stroke="none" font-family="Arial" font-size="24px" font-style="normal" font-weight="normal" text-decoration="none" x="400" y="450">UNREGISTERED</text><text fill="#eeeeee" stroke="none" font-family="Arial" font-size="24px" font-style="normal" font-weight="normal" text-decoration="none" x="400" y="480">UNREGISTERED</text><text fill="#eeeeee" stroke="none" font-family="Arial" font-size="24px" font-style="normal" font-weight="normal" text-decoration="none" x="400" y="510">UNREGISTERED</text><text fill="#eeeeee" stroke="none" font-family="Arial" font-size="24px" font-style="normal" font-weight="normal" text-decoration="none" x="400" y="540">UNREGISTERED</text><text fill="#eeeeee" stroke="none" font-family="Arial" font-size="24px" font-style="normal" font-weight="normal" text-decoration="none" x="400" y="570">UNREGISTERED</text><g transform="translate(-134,-62) scale(1,1)"><rect fill="#C0C0C0" stroke="none" x="399" y="359" width="159.6689453125" height="147" opacity="0.2"/></g><g transform="translate(-134,-62) scale(1,1)"><rect fill="#ffffff" stroke="none" x="392" y="352" width="159.6689453125" height="147"/></g><g transform="translate(-134,-62) scale(1,1)"><path fill="none" stroke="#000000" d="M 392 352 L 551.6689453125 352 L 551.6689453125 499 L 392 499 L 392 352 Z Z" stroke-miterlimit="10"/></g><g transform="translate(-134,-62) scale(1,1)"><path fill="none" stroke="#000000" d="M 392 377 L 551.6689453125 377" stroke-miterlimit="10"/></g><g transform="translate(-134,-62) scale(1,1)"><path fill="none" stroke="#000000" d="M 392 402 L 551.6689453125 402" stroke-miterlimit="10"/></g><g transform="translate(-134,-62) scale(1,1)"><g><path fill="none" stroke="none"/><text fill="#000000" stroke="none" font-family="Arial" font-size="13px" font-style="normal" font-weight="bold" text-decoration="none" x="453.419921875" y="370">Conta</text></g></g><g transform="translate(-134,-62) scale(1,1)"><g><path fill="none" stroke="none"/><text fill="#000000" stroke="none" font-family="Arial" font-size="13px" font-style="normal" font-weight="normal" text-decoration="none" x="397" y="395">-saldo = Int</text></g></g><g transform="translate(-134,-62) scale(1,1)"><g><path fill="none" stroke="none"/><text fill="#000000" stroke="none" font-family="Arial" font-size="13px" font-style="normal" font-weight="normal" text-decoration="none" x="397" y="418">+consultar_saldo(): Int</text></g></g><g transform="translate(-134,-62) scale(1,1)"><g><path fill="none" stroke="none"/><text fill="#000000" stroke="none" font-family="Arial" font-size="13px" font-style="normal" font-weight="normal" text-decoration="none" x="397" y="433">+saque(): Int</text></g></g><g transform="translate(-134,-62) scale(1,1)"><g><path fill="none" stroke="none"/><text fill="#000000" stroke="none" font-family="Arial" font-size="13px" font-style="normal" font-weight="normal" text-decoration="none" x="397" y="448">+deposito(): Int</text></g></g><g transform="translate(-134,-62) scale(1,1)"><g><path fill="none" stroke="none"/><text fill="#000000" stroke="none" font-family="Arial" font-size="13px" font-style="normal" font-weight="normal" text-decoration="none" x="397" y="463">+emprestimo(): Int</text></g></g><g transform="translate(-134,-62) scale(1,1)"><g><path fill="none" stroke="none"/><text fill="#000000" stroke="none" font-family="Arial" font-size="13px" font-style="normal" font-weight="normal" text-decoration="none" x="397" y="478">+deletar_conta(): none</text></g></g><g transform="translate(-134,-62) scale(1,1)"><rect fill="#C0C0C0" stroke="none" x="167" y="127" width="143.03076171875" height="100" opacity="0.2"/></g><g transform="translate(-134,-62) scale(1,1)"><rect fill="#ffffff" stroke="none" x="160" y="120" width="143.03076171875" height="100"/></g><g transform="translate(-134,-62) scale(1,1)"><path fill="none" stroke="#000000" d="M 160 120 L 303.03076171875 120 L 303.03076171875 220 L 160 220 L 160 120 Z Z" stroke-miterlimit="10"/></g><g transform="translate(-134,-62) scale(1,1)"><path fill="none" stroke="#000000" d="M 160 145 L 303.03076171875 145" stroke-miterlimit="10"/></g><g transform="translate(-134,-62) scale(1,1)"><path fill="none" stroke="#000000" d="M 160 183 L 303.03076171875 183" stroke-miterlimit="10"/></g><g transform="translate(-134,-62) scale(1,1)"><g><path fill="none" stroke="none"/><text fill="#000000" stroke="none" font-family="Arial" font-size="13px" font-style="normal" font-weight="bold" text-decoration="none" x="211.650390625" y="138">Banco</text></g></g><g transform="translate(-134,-62) scale(1,1)"><g><path fill="none" stroke="none"/><text fill="#000000" stroke="none" font-family="Arial" font-size="13px" font-style="normal" font-weight="normal" text-decoration="none" x="165" y="161">-login = String</text></g></g><g transform="translate(-134,-62) scale(1,1)"><g><path fill="none" stroke="none"/><text fill="#000000" stroke="none" font-family="Arial" font-size="13px" font-style="normal" font-weight="normal" text-decoration="none" x="165" y="176">-senha = Int</text></g></g><g transform="translate(-134,-62) scale(1,1)"><g><path fill="none" stroke="none"/><text fill="#000000" stroke="none" font-family="Arial" font-size="13px" font-style="normal" font-weight="normal" text-decoration="none" x="165" y="199">+criar_conta(): Args*</text></g></g><g transform="translate(-134,-62) scale(1,1)"><g><path fill="none" stroke="none"/><text fill="#000000" stroke="none" font-family="Arial" font-size="13px" font-style="normal" font-weight="normal" text-decoration="none" x="165" y="214">+verificar_conta(): Bool</text></g></g><g transform="translate(-134,-62) scale(1,1)"><rect fill="#C0C0C0" stroke="none" x="151" y="287" width="161.08984375" height="190" opacity="0.2"/></g><g transform="translate(-134,-62) scale(1,1)"><rect fill="#ffffff" stroke="none" x="144" y="280" width="161.08984375" height="190"/></g><g transform="translate(-134,-62) scale(1,1)"><path fill="none" stroke="#000000" d="M 144 280 L 305.08984375 280 L 305.08984375 470 L 144 470 L 144 280 Z Z" stroke-miterlimit="10"/></g><g transform="translate(-134,-62) scale(1,1)"><path fill="none" stroke="#000000" d="M 144 305 L 305.08984375 305" stroke-miterlimit="10"/></g><g transform="translate(-134,-62) scale(1,1)"><path fill="none" stroke="#000000" d="M 144 433 L 305.08984375 433" stroke-miterlimit="10"/></g><g transform="translate(-134,-62) scale(1,1)"><g><path fill="none" stroke="none"/><text fill="#000000" stroke="none" font-family="Arial" font-size="13px" font-style="normal" font-weight="bold" text-decoration="none" x="188.42041015625" y="298">Criar_conta</text></g></g><g transform="translate(-134,-62) scale(1,1)"><g><path fill="none" stroke="none"/><text fill="#000000" stroke="none" font-family="Arial" font-size="13px" font-style="normal" font-weight="normal" text-decoration="none" x="149" y="321">-nome_usuario = String</text></g></g><g transform="translate(-134,-62) scale(1,1)"><g><path fill="none" stroke="none"/><text fill="#000000" stroke="none" font-family="Arial" font-size="13px" font-style="normal" font-weight="normal" text-decoration="none" x="149" y="336">-senha = String</text></g></g><g transform="translate(-134,-62) scale(1,1)"><g><path fill="none" stroke="none"/><text fill="#000000" stroke="none" font-family="Arial" font-size="13px" font-style="normal" font-weight="normal" text-decoration="none" x="149" y="351">-nome = String</text></g></g><g transform="translate(-134,-62) scale(1,1)"><g><path fill="none" stroke="none"/><text fill="#000000" stroke="none" font-family="Arial" font-size="13px" font-style="normal" font-weight="normal" text-decoration="none" x="149" y="366">-sobre_nome = String</text></g></g><g transform="translate(-134,-62) scale(1,1)"><g><path fill="none" stroke="none"/><text fill="#000000" stroke="none" font-family="Arial" font-size="13px" font-style="normal" font-weight="normal" text-decoration="none" x="149" y="381">-email = String</text></g></g><g transform="translate(-134,-62) scale(1,1)"><g><path fill="none" stroke="none"/><text fill="#000000" stroke="none" font-family="Arial" font-size="13px" font-style="normal" font-weight="normal" text-decoration="none" x="149" y="396">-idade = Int</text></g></g><g transform="translate(-134,-62) scale(1,1)"><g><path fill="none" stroke="none"/><text fill="#000000" stroke="none" font-family="Arial" font-size="13px" font-style="normal" font-weight="normal" text-decoration="none" x="149" y="411">-cpf = Int</text></g></g><g transform="translate(-134,-62) scale(1,1)"><g><path fill="none" stroke="none"/><text fill="#000000" stroke="none" font-family="Arial" font-size="13px" font-style="normal" font-weight="normal" text-decoration="none" x="149" y="426">-rg = int</text></g></g><g transform="translate(-134,-62) scale(1,1)"><g><path fill="none" stroke="none"/><text fill="#000000" stroke="none" font-family="Arial" font-size="13px" font-style="normal" font-weight="normal" text-decoration="none" x="149" y="449">+verificar_dados(): Bool</text></g></g><g transform="translate(-134,-62) scale(1,1)"><g><path fill="none" stroke="none"/><text fill="#000000" stroke="none" font-family="Arial" font-size="13px" font-style="normal" font-weight="normal" text-decoration="none" x="149" y="464">-confirmar_dados(): Args*</text></g></g><g transform="translate(-134,-62) scale(1,1)"><path fill="none" stroke="#000000" d="M 227 279 L 229 221" stroke-miterlimit="10"/></g><g transform="translate(-134,-62) scale(1,1)"><path fill="none" stroke="#000000" d="M 232.8567883955344 231.30170778424971 L 229 221 L 224.44275379603874 231.01156866012917" stroke-miterlimit="10"/></g><g transform="translate(-134,-62) scale(1,1)"><rect fill="#C0C0C0" stroke="none" x="407" y="575" width="138.71435546875" height="72" opacity="0.2"/></g><g transform="translate(-134,-62) scale(1,1)"><rect fill="#ffffff" stroke="none" x="400" y="568" width="138.71435546875" height="72"/></g><g transform="translate(-134,-62) scale(1,1)"><path fill="none" stroke="#000000" d="M 400 568 L 538.71435546875 568 L 538.71435546875 640 L 400 640 L 400 568 Z Z" stroke-miterlimit="10"/></g><g transform="translate(-134,-62) scale(1,1)"><path fill="none" stroke="#000000" d="M 400 593 L 538.71435546875 593" stroke-miterlimit="10"/></g><g transform="translate(-134,-62) scale(1,1)"><path fill="none" stroke="#000000" d="M 400 631 L 538.71435546875 631" stroke-miterlimit="10"/></g><g transform="translate(-134,-62) scale(1,1)"><g><path fill="none" stroke="none"/><text fill="#000000" stroke="none" font-family="Arial" font-size="13px" font-style="normal" font-weight="bold" text-decoration="none" x="436.85400390625" y="586">audity_log</text></g></g><g transform="translate(-134,-62) scale(1,1)"><g><path fill="none" stroke="none"/><text fill="#000000" stroke="none" font-family="Arial" font-size="13px" font-style="normal" font-weight="normal" text-decoration="none" x="405" y="609">+tipo_transicao: String</text></g></g><g transform="translate(-134,-62) scale(1,1)"><g><path fill="none" stroke="none"/><text fill="#000000" stroke="none" font-family="Arial" font-size="13px" font-style="normal" font-weight="normal" text-decoration="none" x="405" y="624">+horario = TimeStamp</text></g></g><g transform="translate(-134,-62) scale(1,1)"><path fill="none" stroke="#000000" d="M 469 567 L 470 500" stroke-miterlimit="10"/></g><g transform="translate(-134,-62) scale(1,1)"><path fill="none" stroke="#000000" d="M 474.0573841417226 510.22436471994706 L 470 500 L 465.6392862136918 510.09872146728986" stroke-miterlimit="10"/></g><g transform="translate(-134,-62) scale(1,1)"><rect fill="#C0C0C0" stroke="none" x="399" y="79" width="159.66162109375" height="205" opacity="0.2"/></g><g transform="translate(-134,-62) scale(1,1)"><rect fill="#ffffff" stroke="none" x="392" y="72" width="159.66162109375" height="205"/></g><g transform="translate(-134,-62) scale(1,1)"><path fill="none" stroke="#000000" d="M 392 72 L 551.66162109375 72 L 551.66162109375 277 L 392 277 L 392 72 Z Z" stroke-miterlimit="10"/></g><g transform="translate(-134,-62) scale(1,1)"><path fill="none" stroke="#000000" d="M 392 112 L 551.66162109375 112" stroke-miterlimit="10"/></g><g transform="translate(-134,-62) scale(1,1)"><path fill="none" stroke="#000000" d="M 392 240 L 551.66162109375 240" stroke-miterlimit="10"/></g><g transform="translate(-134,-62) scale(1,1)"><g><path fill="none" stroke="none"/><text fill="#000000" stroke="none" font-family="Arial" font-size="13px" font-style="normal" font-weight="bold" text-decoration="none" x="447.63037109375" y="90">Usuario</text></g></g><g transform="translate(-134,-62) scale(1,1)"><g><path fill="none" stroke="none"/><text fill="#000000" stroke="none" font-family="Arial" font-size="13px" font-style="normal" font-weight="normal" text-decoration="none" x="419.09765625" y="105">(from Criar_conta)</text></g></g><g transform="translate(-134,-62) scale(1,1)"><g><path fill="none" stroke="none"/><text fill="#000000" stroke="none" font-family="Arial" font-size="13px" font-style="normal" font-weight="normal" text-decoration="none" x="397" y="128">-nome_usuario = String</text></g></g><g transform="translate(-134,-62) scale(1,1)"><g><path fill="none" stroke="none"/><text fill="#000000" stroke="none" font-family="Arial" font-size="13px" font-style="normal" font-weight="normal" text-decoration="none" x="397" y="143">-senha = String</text></g></g><g transform="translate(-134,-62) scale(1,1)"><g><path fill="none" stroke="none"/><text fill="#000000" stroke="none" font-family="Arial" font-size="13px" font-style="normal" font-weight="normal" text-decoration="none" x="397" y="158">+nome = String</text></g></g><g transform="translate(-134,-62) scale(1,1)"><g><path fill="none" stroke="none"/><text fill="#000000" stroke="none" font-family="Arial" font-size="13px" font-style="normal" font-weight="normal" text-decoration="none" x="397" y="173">+sobre_nome = String</text></g></g><g transform="translate(-134,-62) scale(1,1)"><g><path fill="none" stroke="none"/><text fill="#000000" stroke="none" font-family="Arial" font-size="13px" font-style="normal" font-weight="normal" text-decoration="none" x="397" y="188">-email = String</text></g></g><g transform="translate(-134,-62) scale(1,1)"><g><path fill="none" stroke="none"/><text fill="#000000" stroke="none" font-family="Arial" font-size="13px" font-style="normal" font-weight="normal" text-decoration="none" x="397" y="203">-idade = Int</text></g></g><g transform="translate(-134,-62) scale(1,1)"><g><path fill="none" stroke="none"/><text fill="#000000" stroke="none" font-family="Arial" font-size="13px" font-style="normal" font-weight="normal" text-decoration="none" x="397" y="218">-cpf = Int</text></g></g><g transform="translate(-134,-62) scale(1,1)"><g><path fill="none" stroke="none"/><text fill="#000000" stroke="none" font-family="Arial" font-size="13px" font-style="normal" font-weight="normal" text-decoration="none" x="397" y="233">-rg = int</text></g></g><g transform="translate(-134,-62) scale(1,1)"><g><path fill="none" stroke="none"/><text fill="#000000" stroke="none" font-family="Arial" font-size="13px" font-style="normal" font-weight="normal" text-decoration="none" x="397" y="258">+consultar_dados(): Args*</text></g></g><g transform="translate(-134,-62) scale(1,1)"><path fill="none" stroke="#000000" d="M 471 351 L 471 278" stroke-miterlimit="10"/></g><g transform="translate(-134,-62) scale(1,1)"><path fill="none" stroke="#000000" d="M 475.209517756016 288.16267485762415 L 471 278 L 466.790482243984 288.16267485762415" stroke-miterlimit="10"/></g><g transform="translate(-134,-62) scale(1,1)"><path fill="none" stroke="#000000" d="M 304 171 L 391 173" stroke-miterlimit="10"/></g></g></svg>