<svg version="1.1" xmlns="http://www.w3.org/2000/svg" xmlns:xlink="http://www.w3.org/1999/xlink" width="733.23486328125" height="524"><defs/><g><text fill="#eeeeee" stroke="none" font-family="Arial" font-size="24px" font-style="normal" font-weight="normal" text-decoration="none" x="0" y="0">UNREGISTERED</text><text fill="#eeeeee" stroke="none" font-family="Arial" font-size="24px" font-style="normal" font-weight="normal" text-decoration="none" x="0" y="30">UNREGISTERED</text><text fill="#eeeeee" stroke="none" font-family="Arial" font-size="24px" font-style="normal" font-weight="normal" text-decoration="none" x="0" y="60">UNREGISTERED</text><text fill="#eeeeee" stroke="none" font-family="Arial" font-size="24px" font-style="normal" font-weight="normal" text-decoration="none" x="0" y="90">UNREGISTERED</text><text fill="#eeeeee" stroke="none" font-family="Arial" font-size="24px" font-style="normal" font-weight="normal" text-decoration="none" x="0" y="120">UNREGISTERED</text><text fill="#eeeeee" stroke="none" font-family="Arial" font-size="24px" font-style="normal" font-weight="normal" text-decoration="none" x="0" y="150">UNREGISTERED</text><text fill="#eeeeee" stroke="none" font-family="Arial" font-size="24px" font-style="normal" font-weight="normal" text-decoration="none" x="0" y="180">UNREGISTERED</text><text fill="#eeeeee" stroke="none" font-family="Arial" font-size="24px" font-style="normal" font-weight="normal" text-decoration="none" x="0" y="210">UNREGISTERED</text><text fill="#eeeeee" stroke="none" font-family="Arial" font-size="24px" font-style="normal" font-weight="normal" text-decoration="none" x="0" y="240">UNREGISTERED</text><text fill="#eeeeee" stroke="none" font-family="Arial" font-size="24px" font-style="normal" font-weight="normal" text-decoration="none" x="0" y="270">UNREGISTERED</text><text fill="#eeeeee" stroke="none" font-family="Arial" font-size="24px" font-style="normal" font-weight="normal" text-decoration="none" x="0" y="300">UNREGISTERED</text><text fill="#eeeeee" stroke="none" font-family="Arial" font-size="24px" font-style="normal" font-weight="normal" text-decoration="none" x="0" y="330">UNREGISTERED</text><text fill="#eeeeee" stroke="none" font-family="Arial" font-size="24px" font-style="normal" font-weight="normal" text-decoration="none" x="0" y="360">UNREGISTERED</text><text fill="#eeeeee" stroke="none" font-family="Arial" font-size="24px" font-style="normal" font-weight="normal" text-decoration="none" x="0" y="390">UNREGISTERED</text><text fill="#eeeeee" stroke="none" font-family="Arial" font-size="24px" font-style="normal" font-weight="normal" text-decoration="none" x="0" y="420">UNREGISTERED</text><text fill="#eeeeee" stroke="none" font-family="Arial" font-size="24px" font-style="normal" font-weight="normal" text-decoration="none" x="0" y="450">UNREGISTERED</text><text fill="#eeeeee" stroke="none" font-family="Arial" font-size="24px" font-style="normal" font-weight="normal" text-decoration="none" x="0" y="480">UNREGISTERED</text><text fill="#eeeeee" stroke="none" font-family="Arial" font-size="24px" font-style="normal" font-weight="normal" text-decoration="none" x="0" y="510">UNREGISTERED</text><text fill="#eeeeee" stroke="none" font-family="Arial" font-size="24px" font-style="normal" font-weight="normal" text-decoration="none" x="200" y="0">UNREGISTERED</text><text fill="#eeeeee" stroke="none" font-family="Arial" font-size="24px" font-style="normal" font-weight="normal" text-decoration="none" x="200" y="30">UNREGISTERED</text><text fill="#eeeeee" stroke="none" font-family="Arial" font-size="24px" font-style="normal" font-weight="normal" text-decoration="none" x="200" y="60">UNREGISTERED</text><text fill="#eeeeee" stroke="none" font-family="Arial" font-size="24px" font-style="normal" font-weight="normal" text-decoration="none" x="200" y="90">UNREGISTERED</text><text fill="#eeeeee" stroke="none" font-family="Arial" font-size="24px" font-style="normal" font-weight="normal" text-decoration="none" x="200" y="120">UNREGISTERED</text><text fill="#eeeeee" stroke="none" font-family="Arial" font-size="24px" font-style="normal" font-weight="normal" text-decoration="none" x="200" y="150">UNREGISTERED</text><text fill="#eeeeee" stroke="none" font-family="Arial" font-size="24px" font-style="normal" font-weight="normal" text-decoration="none" x="200" y="180">UNREGISTERED</text><text fill="#eeeeee" stroke="none" font-family="Arial" font-size="24px" font-style="normal" font-weight="normal" text-decoration="none" x="200" y="210">UNREGISTERED</text><text fill="#eeeeee" stroke="none" font-family="Arial" font-size="24px" font-style="normal" font-weight="normal" text-decoration="none" x="200" y="240">UNREGISTERED</text><text fill="#eeeeee" stroke="none" font-family="Arial" font-size="24px" font-style="normal" font-weight="normal" text-decoration="none" x="200" y="270">UNREGISTERED</text><text fill="#eeeeee" stroke="none" font-family="Arial" font-size="24px" font-style="normal" font-weight="normal" text-decoration="none" x="200" y="300">UNREGISTERED</text><text fill="#eeeeee" stroke="none" font-family="Arial" font-size="24px" font-style="normal" font-weight="normal" text-decoration="none" x="200" y="330">UNREGISTERED</text><text fill="#eeeeee" stroke="none" font-family="Arial" font-size="24px" font-style="normal" font-weight="normal" text-decoration="none" x="200" y="360">UNREGISTERED</text><text fill="#eeeeee" stroke="none" font-family="Arial" font-size="24px" font-style="normal" font-weight="normal" text-decoration="none" x="200" y="390">UNREGISTERED</text><text fill="#eeeeee" stroke="none" font-family="Arial" font-size="24px" font-style="normal" font-weight="normal" text-decoration="none" x="200" y="420">UNREGISTERED</text><text fill="#eeeeee" stroke="none" font-family="Arial" font-size="24px" font-style="normal" font-weight="normal" text-decoration="none" x="200" y="450">UNREGISTERED</text><text fill="#eeeeee" stroke="none" font-family="Arial" font-size="24px" font-style="normal" font-weight="normal" text-decoration="none" x="200" y="480">UNREGISTERED</text><text fill="#eeeeee" stroke="none" font-family="Arial" font-size="24px" font-style="normal" font-weight="normal" text-decoration="none" x="200" y="510">UNREGISTERED</text><text fill="#eeeeee" stroke="none" font-family="Arial" font-size="24px" font-style="normal" font-weight="normal" text-decoration="none" x="400" y="0">UNREGISTERED</text><text fill="#eeeeee" stroke="none" font-family="Arial" font-size="24px" font-style="normal" font-weight="normal" text-decoration="none" x="400" y="30">UNREGISTERED</text><text fill="#eeeeee" stroke="none" font-family="Arial" font-size="24px" font-style="normal" font-weight="normal" text-decoration="none" x="400" y="60">UNREGISTERED</text><text fill="#eeeeee" stroke="none" font-family="Arial" font-size="24px" font-style="normal" font-weight="normal" text-decoration="none" x="400" y="90">UNREGISTERED</text><text fill="#eeeeee" stroke="none" font-family="Arial" font-size="24px" font-style="normal" font-weight="normal" text-decoration="none" x="400" y="120">UNREGISTERED</text><text fill="#eeeeee" stroke="none" font-family="Arial" font-size="24px" font-style="normal" font-weight="normal" text-decoration="none" x="400" y="150">UNREGISTERED</text><text fill="#eeeeee" stroke="none" font-family="Arial" font-size="24px" font-style="normal" font-weight="normal" text-decoration="none" x="400" y="180">UNREGISTERED</text><text fill="#eeeeee" stroke="none" font-family="Arial" font-size="24px" font-style="normal" font-weight="normal" text-decoration="none" x="400" y="210">UNREGISTERED</text><text fill="#eeeeee" stroke="none" font-family="Arial" font-size="24px" font-style="normal" font-weight="normal" text-decoration="none" x="400" y="240">UNREGISTERED</text><text fill="#eeeeee" stroke="none" font-family="Arial" font-size="24px" font-style="normal" font-weight="normal" text-decoration="none" x="400" y="270">UNREGISTERED</text><text fill="#eeeeee" stroke="none" font-family="Arial" font-size="24px" font-style="normal" font-weight="normal" text-decoration="none" x="400" y="300">UNREGISTERED</text><text fill="#eeeeee" stroke="none" font-family="Arial" font-size="24px" font-style="normal" font-weight="normal" text-decoration="none" x="400" y="330">UNREGISTERED</text><text fill="#eeeeee" stroke="none" font-family="Arial" font-size="24px" font-style="normal" font-weight="normal" text-decoration="none" x="400" y="360">UNREGISTERED</text><text fill="#eeeeee" stroke="none" font-family="Arial" font-size="24px" font-style="normal" font-weight="normal" text-decoration="none" x="400" y="390">UNREGISTERED</text><text fill="#eeeeee" stroke="none" font-family="Arial" font-size="24px" font-style="normal" font-weight="normal" text-decoration="none" x="400" y="420">UNREGISTERED</text><text fill="#eeeeee" stroke="none" font-family="Arial" font-size="24px" font-style="normal" font-weight="normal" text-decoration="none" x="400" y="450">UNREGISTERED</text><text fill="#eeeeee" stroke="none" font-family="Arial" font-size="24px" font-style="normal" font-weight="normal" text-decoration="none" x="400" y="480">UNREGISTERED</text><text fill="#eeeeee" stroke="none" font-family="Arial" font-size="24px" font-style="normal" font-weight="normal" text-decoration="none" x="400" y="510">UNREGISTERED</text><text fill="#eeeeee" stroke="none" font-family="Arial" font-size="24px" font-style="normal" font-weight="normal" text-decoration="none" x="600" y="0">UNREGISTERED</text><text fill="#eeeeee" stroke="none" font-family="Arial" font-size="24px" font-style="normal" font-weight="normal" text-decoration="none" x="600" y="30">UNREGISTERED</text><text fill="#eeeeee" stroke="none" font-family="Arial" font-size="24px" font-style="normal" font-weight="normal" text-decoration="none" x="600" y="60">UNREGISTERED</text><text fill="#eeeeee" stroke="none" font-family="Arial" font-size="24px" font-style="normal" font-weight="normal" text-decoration="none" x="600" y="90">UNREGISTERED</text><text fill="#eeeeee" stroke="none" font-family="Arial" font-size="24px" font-style="normal" font-weight="normal" text-decoration="none" x="600" y="120">UNREGISTERED</text><text fill="#eeeeee" stroke="none" font-family="Arial" font-size="24px" font-style="normal" font-weight="normal" text-decoration="none" x="600" y="150">UNREGISTERED</text><text fill="#eeeeee" stroke="none" font-family="Arial" font-size="24px" font-style="normal" font-weight="normal" text-decoration="none" x="600" y="180">UNREGISTERED</text><text fill="#eeeeee" stroke="none" font-family="Arial" font-size="24px" font-style="normal" font-weight="normal" text-decoration="none" x="600" y="210">UNREGISTERED</text><text fill="#eeeeee" stroke="none" font-family="Arial" font-size="24px" font-style="normal" font-weight="normal" text-decoration="none" x="600" y="240">UNREGISTERED</text><text fill="#eeeeee" stroke="none" font-family="Arial" font-size="24px" font-style="normal" font-weight="normal" text-decoration="none" x="600" y="270">UNREGISTERED</text><text fill="#eeeeee" stroke="none" font-family="Arial" font-size="24px" font-style="normal" font-weight="normal" text-decoration="none" x="600" y="300">UNREGISTERED</text><text fill="#eeeeee" stroke="none" font-family="Arial" font-size="24px" font-style="normal" font-weight="normal" text-decoration="none" x="600" y="330">UNREGISTERED</text><text fill="#eeeeee" stroke="none" font-family="Arial" font-size="24px" font-style="normal" font-weight="normal" text-decoration="none" x="600" y="360">UNREGISTERED</text><text fill="#eeeeee" stroke="none" font-family="Arial" font-size="24px" font-style="normal" font-weight="normal" text-decoration="none" x="600" y="390">UNREGISTERED</text><text fill="#eeeeee" stroke="none" font-family="Arial" font-size="24px" font-style="normal" font-weight="normal" text-decoration="none" x="600" y="420">UNREGISTERED</text><text fill="#eeeeee" stroke="none" font-family="Arial" font-size="24px" font-style="normal" font-weight="normal" text-decoration="none" x="600" y="450">UNREGISTERED</text><text fill="#eeeeee" stroke="none" font-family="Arial" font-size="24px" font-style="normal" font-weight="normal" text-decoration="none" x="600" y="480">UNREGISTERED</text><text fill="#eeeeee" stroke="none" font-family="Arial" font-size="24px" font-style="normal" font-weight="normal" text-decoration="none" x="600" y="510">UNREGISTERED</text><g transform="translate(10,-110) scale(1,1)"><path fill="#C0C0C0" stroke="none" d="M 87 168.5 C 87 163.2532944 91.2532944 159 96.5 159 C 101.7467056 159 106 163.2532944 106 168.5 C 106 173.7467056 101.7467056 178 96.5 178 C 91.2532944 178 87 173.7467056 87 168.5 Z" opacity="0.2"/></g><g transform="translate(10,-110) scale(1,1)"><path fill="#000000" stroke="none" d="M 80 161.5 C 80 156.2532944 84.2532944 152 89.5 152 C 94.7467056 152 99 156.2532944 99 161.5 C 99 166.7467056 94.7467056 171 89.5 171 C 84.2532944 171 80 166.7467056 80 161.5 Z"/></g><g transform="translate(10,-110) scale(1,1)"><path fill="#C0C0C0" stroke="none" d="M 209 151 L 310.4296875 151 Q 320.4296875 151 320.4296875 161 L 320.4296875 181 Q 320.4296875 191 310.4296875 191 L 209 191 Q 199 191 199 181 L 199 161 Q 199 151 209 151 Z" opacity="0.2"/></g><g transform="translate(10,-110) scale(1,1)"><path fill="#ffffff" stroke="none" d="M 202 144 L 303.4296875 144 Q 313.4296875 144 313.4296875 154 L 313.4296875 174 Q 313.4296875 184 303.4296875 184 L 202 184 Q 192 184 192 174 L 192 154 Q 192 144 202 144 Z"/></g><g transform="translate(10,-110) scale(1,1)"><path fill="none" stroke="#000000" d="M 202 144 L 303.4296875 144 Q 313.4296875 144 313.4296875 154 L 313.4296875 174 Q 313.4296875 184 303.4296875 184 L 202 184 Q 192 184 192 174 L 192 154 Q 192 144 202 144 Z" stroke-miterlimit="10"/></g><g transform="translate(10,-110) scale(1,1)"><g><path fill="none" stroke="none"/><text fill="#000000" stroke="none" font-family="Arial" font-size="13px" font-style="normal" font-weight="bold" text-decoration="none" x="196.5" y="162">ACESSAR CONTA</text></g></g><g transform="translate(10,-110) scale(1,1)"><path fill="#C0C0C0" stroke="none" d="M 417 151 L 509.3017578125 151 Q 519.3017578125 151 519.3017578125 161 L 519.3017578125 181 Q 519.3017578125 191 509.3017578125 191 L 417 191 Q 407 191 407 181 L 407 161 Q 407 151 417 151 Z" opacity="0.2"/></g><g transform="translate(10,-110) scale(1,1)"><path fill="#ffffff" stroke="none" d="M 410 144 L 502.3017578125 144 Q 512.3017578125 144 512.3017578125 154 L 512.3017578125 174 Q 512.3017578125 184 502.3017578125 184 L 410 184 Q 400 184 400 174 L 400 154 Q 400 144 410 144 Z"/></g><g transform="translate(10,-110) scale(1,1)"><path fill="none" stroke="#000000" d="M 410 144 L 502.3017578125 144 Q 512.3017578125 144 512.3017578125 154 L 512.3017578125 174 Q 512.3017578125 184 502.3017578125 184 L 410 184 Q 400 184 400 174 L 400 154 Q 400 144 410 144 Z" stroke-miterlimit="10"/></g><g transform="translate(10,-110) scale(1,1)"><g><path fill="none" stroke="none"/><text fill="#000000" stroke="none" font-family="Arial" font-size="13px" font-style="normal" font-weight="bold" text-decoration="none" x="404.8681640625" y="162">LOGIN E SENHA</text></g></g><g transform="translate(10,-110) scale(1,1)"><path fill="#C0C0C0" stroke="none" d="M 447 255.5 L 463.5 239 L 479 255.5 L 463.5 271 L 447 255.5" opacity="0.2"/></g><g transform="translate(10,-110) scale(1,1)"><path fill="#ffffff" stroke="none" d="M 440 248 L 456 232 L 472 248 L 456 264 L 440 248"/></g><g transform="translate(10,-110) scale(1,1)"><path fill="none" stroke="#000000" d="M 440 248 L 456 232 L 472 248 L 456 264 L 440 248 L 440 248" stroke-miterlimit="10"/></g><g transform="translate(10,-110) scale(1,1)"><path fill="none" stroke="#000000" d="M 100 161 L 191 163" stroke-miterlimit="10"/></g><g transform="translate(10,-110) scale(1,1)"><path fill="none" stroke="#000000" d="M 180.74728417201678 166.98519988841494 L 191 163 L 180.93227324697236 158.56819697793648" stroke-miterlimit="10"/></g><g transform="translate(10,-110) scale(1,1)"><path fill="none" stroke="#000000" d="M 314 164 L 399 164" stroke-miterlimit="10"/></g><g transform="translate(10,-110) scale(1,1)"><path fill="none" stroke="#000000" d="M 388.83732514237585 168.209517756016 L 399 164 L 388.83732514237585 159.790482243984" stroke-miterlimit="10"/></g><g transform="translate(10,-110) scale(1,1)"><path fill="none" stroke="#000000" d="M 456 185 L 456 231" stroke-miterlimit="10"/></g><g transform="translate(10,-110) scale(1,1)"><path fill="none" stroke="#000000" d="M 451.790482243984 220.83732514237585 L 456 231 L 460.209517756016 220.83732514237585" stroke-miterlimit="10"/></g><g transform="translate(10,-110) scale(1,1)"><path fill="none" stroke="#000000" d="M 472 264 L 560 264 L 560 163 L 512 163" stroke-miterlimit="10"/></g><g transform="translate(10,-110) scale(1,1)"><path fill="none" stroke="#000000" d="M 522.1626748576241 158.790482243984 L 512 163 L 522.1626748576241 167.209517756016" stroke-miterlimit="10"/></g><g transform="translate(10,-110) scale(1,1)"><g><path fill="none" stroke="none"/><text fill="#000000" stroke="none" font-family="Arial" font-size="10px" font-style="normal" font-weight="normal" text-decoration="none" x="491.47607421875" y="287">LOGIN OU SENHA INVADOS</text></g></g><g transform="translate(10,-110) scale(1,1)"><path fill="#ffffff" stroke="none" d="M 536 120 L 621.28271484375 120 L 631.28271484375 130 L 631.28271484375 158 L 536 158 L 536 120"/></g><g transform="translate(10,-110) scale(1,1)"><path fill="none" stroke="#000000" d="M 536 120 L 621.28271484375 120 L 631.28271484375 130 L 631.28271484375 158 L 536 158 L 536 120 L 536 120" stroke-miterlimit="10"/></g><g transform="translate(10,-110) scale(1,1)"><path fill="none" stroke="#000000" d="M 621.28271484375 120 L 621.28271484375 130 L 631.28271484375 130 L 621.28271484375 120" stroke-miterlimit="10"/></g><g transform="translate(10,-110) scale(1,1)"><g><path fill="none" stroke="none"/><text fill="#000000" stroke="none" font-family="Arial" font-size="13px" font-style="normal" font-weight="normal" text-decoration="none" x="541" y="135">MAX 5</text><text fill="#000000" stroke="none" font-family="Arial" font-size="13px" font-style="normal" font-weight="normal" text-decoration="none" x="541" y="148">TENTATIVAS</text></g></g><g transform="translate(10,-110) scale(1,1)"><path fill="#C0C0C0" stroke="none" d="M 409 327 L 526.69873046875 327 Q 536.69873046875 327 536.69873046875 337 L 536.69873046875 357 Q 536.69873046875 367 526.69873046875 367 L 409 367 Q 399 367 399 357 L 399 337 Q 399 327 409 327 Z" opacity="0.2"/></g><g transform="translate(10,-110) scale(1,1)"><path fill="#ffffff" stroke="none" d="M 402 320 L 519.69873046875 320 Q 529.69873046875 320 529.69873046875 330 L 529.69873046875 350 Q 529.69873046875 360 519.69873046875 360 L 402 360 Q 392 360 392 350 L 392 330 Q 392 320 402 320 Z"/></g><g transform="translate(10,-110) scale(1,1)"><path fill="none" stroke="#000000" d="M 402 320 L 519.69873046875 320 Q 529.69873046875 320 529.69873046875 330 L 529.69873046875 350 Q 529.69873046875 360 519.69873046875 360 L 402 360 Q 392 360 392 350 L 392 330 Q 392 320 402 320 Z" stroke-miterlimit="10"/></g><g transform="translate(10,-110) scale(1,1)"><g><path fill="none" stroke="none"/><text fill="#000000" stroke="none" font-family="Arial" font-size="13px" font-style="normal" font-weight="bold" text-decoration="none" x="396.579345703125" y="338">CONSULTAR CONTA</text></g></g><g transform="translate(10,-110) scale(1,1)"><path fill="#C0C0C0" stroke="none" d="M 177 351 L 282.66357421875 351 Q 292.66357421875 351 292.66357421875 361 L 292.66357421875 381 Q 292.66357421875 391 282.66357421875 391 L 177 391 Q 167 391 167 381 L 167 361 Q 167 351 177 351 Z" opacity="0.2"/></g><g transform="translate(10,-110) scale(1,1)"><path fill="#ffffff" stroke="none" d="M 170 344 L 275.66357421875 344 Q 285.66357421875 344 285.66357421875 354 L 285.66357421875 374 Q 285.66357421875 384 275.66357421875 384 L 170 384 Q 160 384 160 374 L 160 354 Q 160 344 170 344 Z"/></g><g transform="translate(10,-110) scale(1,1)"><path fill="none" stroke="#000000" d="M 170 344 L 275.66357421875 344 Q 285.66357421875 344 285.66357421875 354 L 285.66357421875 374 Q 285.66357421875 384 275.66357421875 384 L 170 384 Q 160 384 160 374 L 160 354 Q 160 344 170 344 Z" stroke-miterlimit="10"/></g><g transform="translate(10,-110) scale(1,1)"><g><path fill="none" stroke="none"/><text fill="#000000" stroke="none" font-family="Arial" font-size="13px" font-style="normal" font-weight="bold" text-decoration="none" x="165.05224609375" y="362">REALIZAR SAQUE</text></g></g><g transform="translate(10,-110) scale(1,1)"><path fill="#C0C0C0" stroke="none" d="M 161 527 L 288.8232421875 527 Q 298.8232421875 527 298.8232421875 537 L 298.8232421875 557 Q 298.8232421875 567 288.8232421875 567 L 161 567 Q 151 567 151 557 L 151 537 Q 151 527 161 527 Z" opacity="0.2"/></g><g transform="translate(10,-110) scale(1,1)"><path fill="#ffffff" stroke="none" d="M 154 520 L 281.8232421875 520 Q 291.8232421875 520 291.8232421875 530 L 291.8232421875 550 Q 291.8232421875 560 281.8232421875 560 L 154 560 Q 144 560 144 550 L 144 530 Q 144 520 154 520 Z"/></g><g transform="translate(10,-110) scale(1,1)"><path fill="none" stroke="#000000" d="M 154 520 L 281.8232421875 520 Q 291.8232421875 520 291.8232421875 530 L 291.8232421875 550 Q 291.8232421875 560 281.8232421875 560 L 154 560 Q 144 560 144 550 L 144 530 Q 144 520 154 520 Z" stroke-miterlimit="10"/></g><g transform="translate(10,-110) scale(1,1)"><g><path fill="none" stroke="none"/><text fill="#000000" stroke="none" font-family="Arial" font-size="13px" font-style="normal" font-weight="bold" text-decoration="none" x="149.77587890625" y="538">REALIZAR DEPOSITO</text></g></g><g transform="translate(10,-110) scale(1,1)"><path fill="#C0C0C0" stroke="none" d="M 161 591 L 272.9033203125 591 Q 282.9033203125 591 282.9033203125 601 L 282.9033203125 621 Q 282.9033203125 631 272.9033203125 631 L 161 631 Q 151 631 151 621 L 151 601 Q 151 591 161 591 Z" opacity="0.2"/></g><g transform="translate(10,-110) scale(1,1)"><path fill="#ffffff" stroke="none" d="M 154 584 L 265.9033203125 584 Q 275.9033203125 584 275.9033203125 594 L 275.9033203125 614 Q 275.9033203125 624 265.9033203125 624 L 154 624 Q 144 624 144 614 L 144 594 Q 144 584 154 584 Z"/></g><g transform="translate(10,-110) scale(1,1)"><path fill="none" stroke="#000000" d="M 154 584 L 265.9033203125 584 Q 275.9033203125 584 275.9033203125 594 L 275.9033203125 614 Q 275.9033203125 624 265.9033203125 624 L 154 624 Q 144 624 144 614 L 144 594 Q 144 584 154 584 Z" stroke-miterlimit="10"/></g><g transform="translate(10,-110) scale(1,1)"><g><path fill="none" stroke="none"/><text fill="#000000" stroke="none" font-family="Arial" font-size="13px" font-style="normal" font-weight="bold" text-decoration="none" x="148.68408203125" y="602">ENCERRAR CONTA</text></g></g><g transform="translate(10,-110) scale(1,1)"><path fill="none" stroke="#000000" d="M 457 265 L 459 319" stroke-miterlimit="10"/></g><g transform="translate(10,-110) scale(1,1)"><path fill="none" stroke="#000000" d="M 454.41722899170594 309.0000895061236 L 459 319 L 462.8304960648887 308.6884870219316" stroke-miterlimit="10"/></g><g transform="translate(10,-110) scale(1,1)"><path fill="#C0C0C0" stroke="none" d="M 79 368.5 C 79 363.2532944 83.2532944 359 88.5 359 C 93.7467056 359 98 363.2532944 98 368.5 C 98 373.7467056 93.7467056 378 88.5 378 C 83.2532944 378 79 373.7467056 79 368.5 Z" opacity="0.2"/></g><g transform="translate(10,-110) scale(1,1)"><path fill="#000000" stroke="none" d="M 72 361.5 C 72 356.2532944 76.2532944 352 81.5 352 C 86.7467056 352 91 356.2532944 91 361.5 C 91 366.7467056 86.7467056 371 81.5 371 C 76.2532944 371 72 366.7467056 72 361.5 Z"/></g><g transform="translate(10,-110) scale(1,1)"><path fill="none" stroke="#000000" d="M 92 361 L 159 363" stroke-miterlimit="10"/></g><g transform="translate(10,-110) scale(1,1)"><path fill="none" stroke="#000000" d="M 148.71624863173085 366.9044151669132 L 159 363 L 148.96745123036848 358.4891281125524" stroke-miterlimit="10"/></g><g transform="translate(10,-110) scale(1,1)"><path fill="#C0C0C0" stroke="none" d="M 279 464.5 L 295.5 447 L 311 464.5 L 295.5 481 L 279 464.5" opacity="0.2"/></g><g transform="translate(10,-110) scale(1,1)"><path fill="#ffffff" stroke="none" d="M 272 457 L 288 440 L 304 457 L 288 474 L 272 457"/></g><g transform="translate(10,-110) scale(1,1)"><path fill="none" stroke="#000000" d="M 272 457 L 288 440 L 304 457 L 288 474 L 272 457 L 272 457" stroke-miterlimit="10"/></g><g transform="translate(10,-110) scale(1,1)"><path fill="none" stroke="#000000" d="M 237 385 L 275 439" stroke-miterlimit="10"/></g><g transform="translate(10,-110) scale(1,1)"><path fill="none" stroke="#000000" d="M 265.70887698731036 433.1114489759306 L 275 439 L 272.5940182733712 428.2663495524063" stroke-miterlimit="10"/></g><g transform="translate(10,-110) scale(1,1)"><path fill="#C0C0C0" stroke="none" d="M 417 471 L 521.55908203125 471 Q 531.55908203125 471 531.55908203125 481 L 531.55908203125 501 Q 531.55908203125 511 521.55908203125 511 L 417 511 Q 407 511 407 501 L 407 481 Q 407 471 417 471 Z" opacity="0.2"/></g><g transform="translate(10,-110) scale(1,1)"><path fill="#ffffff" stroke="none" d="M 410 464 L 514.55908203125 464 Q 524.55908203125 464 524.55908203125 474 L 524.55908203125 494 Q 524.55908203125 504 514.55908203125 504 L 410 504 Q 400 504 400 494 L 400 474 Q 400 464 410 464 Z"/></g><g transform="translate(10,-110) scale(1,1)"><path fill="none" stroke="#000000" d="M 410 464 L 514.55908203125 464 Q 524.55908203125 464 524.55908203125 474 L 524.55908203125 494 Q 524.55908203125 504 514.55908203125 504 L 410 504 Q 400 504 400 494 L 400 474 Q 400 464 410 464 Z" stroke-miterlimit="10"/></g><g transform="translate(10,-110) scale(1,1)"><g><path fill="none" stroke="none"/><text fill="#000000" stroke="none" font-family="Arial" font-size="13px" font-style="normal" font-weight="bold" text-decoration="none" x="439.16455078125" y="482">SAQUE</text></g></g><g transform="translate(10,-110) scale(1,1)"><path fill="none" stroke="#000000" d="M 305 460 L 399 474" stroke-miterlimit="10"/></g><g transform="translate(10,-110) scale(1,1)"><path fill="none" stroke="#000000" d="M 388.3280885713034 476.6665157899503 L 399 474 L 389.56830766333155 468.33933045776126" stroke-miterlimit="10"/></g><g transform="translate(10,-110) scale(1,1)"><g><path fill="none" stroke="none"/><text fill="#000000" stroke="none" font-family="Arial" font-size="10px" font-style="normal" font-weight="normal" text-decoration="none" x="280.123779296875" y="487">saldo equivalente</text></g></g><g transform="translate(10,-110) scale(1,1)"><path fill="none" stroke="#000000" d="M 461 463 L 461 425" stroke-miterlimit="10"/></g><g transform="translate(10,-110) scale(1,1)"><path fill="none" stroke="#000000" d="M 465.209517756016 435.16267485762415 L 461 425 L 456.790482243984 435.16267485762415" stroke-miterlimit="10"/></g><g transform="translate(10,-110) scale(1,1)"><path fill="none" stroke="#000000" d="M 291 439 L 296 400 L 391 402" stroke-miterlimit="10"/></g><g transform="translate(10,-110) scale(1,1)"><path fill="none" stroke="#000000" d="M 380.7509747164673 405.99468155645815 L 391 402 L 380.92817830420927 397.577511138714" stroke-miterlimit="10"/></g><g transform="translate(10,-110) scale(1,1)"><g><path fill="none" stroke="none"/><text fill="#000000" stroke="none" font-family="Arial" font-size="10px" font-style="normal" font-weight="normal" text-decoration="none" x="285.094970703125" y="391.5">saldo não equivalente</text></g></g><g transform="translate(10,-110) scale(1,1)"><path fill="#C0C0C0" stroke="none" d="M 655 347.5 C 655 340.59644 660.59644 335 667.5 335 C 674.40356 335 680 340.59644 680 347.5 C 680 354.40356 674.40356 360 667.5 360 C 660.59644 360 655 354.40356 655 347.5 Z" opacity="0.2"/></g><g transform="translate(10,-110) scale(1,1)"><path fill="none" stroke="#000000" d="M 648 340.5 C 648 333.59644 653.59644 328 660.5 328 C 667.40356 328 673 333.59644 673 340.5 C 673 347.40356 667.40356 353 660.5 353 C 653.59644 353 648 347.40356 648 340.5 Z" stroke-miterlimit="10"/></g><g transform="translate(10,-110) scale(1,1)"><path fill="#000000" stroke="none" d="M 653 340.5 C 653 336.357864 656.357864 333 660.5 333 C 664.642136 333 668 336.357864 668 340.5 C 668 344.642136 664.642136 348 660.5 348 C 656.357864 348 653 344.642136 653 340.5 Z"/></g><g transform="translate(10,-110) scale(1,1)"><path fill="none" stroke="#000000" d="M 531 340 L 647 340" stroke-miterlimit="10"/></g><g transform="translate(10,-110) scale(1,1)"><path fill="none" stroke="#000000" d="M 636.8373251423759 344.209517756016 L 647 340 L 636.8373251423758 335.790482243984" stroke-miterlimit="10"/></g><g transform="translate(10,-110) scale(1,1)"><path fill="#C0C0C0" stroke="none" d="M 87 544.5 C 87 539.2532944 91.2532944 535 96.5 535 C 101.7467056 535 106 539.2532944 106 544.5 C 106 549.7467056 101.7467056 554 96.5 554 C 91.2532944 554 87 549.7467056 87 544.5 Z" opacity="0.2"/></g><g transform="translate(10,-110) scale(1,1)"><path fill="#000000" stroke="none" d="M 80 537.5 C 80 532.2532944 84.2532944 528 89.5 528 C 94.7467056 528 99 532.2532944 99 537.5 C 99 542.7467056 94.7467056 547 89.5 547 C 84.2532944 547 80 542.7467056 80 537.5 Z"/></g><g transform="translate(10,-110) scale(1,1)"><path fill="none" stroke="#000000" d="M 100 537 L 143 538" stroke-miterlimit="10"/></g><g transform="translate(10,-110) scale(1,1)"><path fill="none" stroke="#000000" d="M 132.7422028826507 541.9721025036246 L 143 538 L 132.9379414824055 533.5553427141674" stroke-miterlimit="10"/></g><g transform="translate(10,-110) scale(1,1)"><path fill="none" stroke="#000000" d="M 293 539 L 568 536 L 568 416 L 531 412" stroke-miterlimit="10"/></g><g transform="translate(10,-110) scale(1,1)"><path fill="none" stroke="#000000" d="M 541.5562496920442 408.90717080342023 L 531 412 L 540.6513562390962 417.2774352431896" stroke-miterlimit="10"/></g><g transform="translate(10,-110) scale(1,1)"><path fill="#C0C0C0" stroke="none" d="M 409 391 L 526.78759765625 391 Q 536.78759765625 391 536.78759765625 401 L 536.78759765625 421 Q 536.78759765625 431 526.78759765625 431 L 409 431 Q 399 431 399 421 L 399 401 Q 399 391 409 391 Z" opacity="0.2"/></g><g transform="translate(10,-110) scale(1,1)"><path fill="#ffffff" stroke="none" d="M 402 384 L 519.78759765625 384 Q 529.78759765625 384 529.78759765625 394 L 529.78759765625 414 Q 529.78759765625 424 519.78759765625 424 L 402 424 Q 392 424 392 414 L 392 394 Q 392 384 402 384 Z"/></g><g transform="translate(10,-110) scale(1,1)"><path fill="none" stroke="#000000" d="M 402 384 L 519.78759765625 384 Q 529.78759765625 384 529.78759765625 394 L 529.78759765625 414 Q 529.78759765625 424 519.78759765625 424 L 402 424 Q 392 424 392 414 L 392 394 Q 392 384 402 384 Z" stroke-miterlimit="10"/></g><g transform="translate(10,-110) scale(1,1)"><g><path fill="none" stroke="none"/><text fill="#000000" stroke="none" font-family="Arial" font-size="13px" font-style="normal" font-weight="bold" text-decoration="none" x="396.5" y="402">CONSULTAR SALDO</text></g></g><g transform="translate(10,-110) scale(1,1)"><path fill="none" stroke="#000000" d="M 460 383 L 460 361" stroke-miterlimit="10"/></g><g transform="translate(10,-110) scale(1,1)"><path fill="none" stroke="#000000" d="M 464.209517756016 371.16267485762415 L 460 361 L 455.790482243984 371.16267485762415" stroke-miterlimit="10"/></g><g transform="translate(10,-110) scale(1,1)"><path fill="#C0C0C0" stroke="none" d="M 87 608.5 C 87 603.2532944 91.2532944 599 96.5 599 C 101.7467056 599 106 603.2532944 106 608.5 C 106 613.7467056 101.7467056 618 96.5 618 C 91.2532944 618 87 613.7467056 87 608.5 Z" opacity="0.2"/></g><g transform="translate(10,-110) scale(1,1)"><path fill="#000000" stroke="none" d="M 80 601.5 C 80 596.2532944 84.2532944 592 89.5 592 C 94.7467056 592 99 596.2532944 99 601.5 C 99 606.7467056 94.7467056 611 89.5 611 C 84.2532944 611 80 606.7467056 80 601.5 Z"/></g><g transform="translate(10,-110) scale(1,1)"><path fill="none" stroke="#000000" d="M 100 601 L 143 602" stroke-miterlimit="10"/></g><g transform="translate(10,-110) scale(1,1)"><path fill="none" stroke="#000000" d="M 132.7422028826507 605.9721025036246 L 143 602 L 132.9379414824055 597.5553427141674" stroke-miterlimit="10"/></g><g transform="translate(10,-110) scale(1,1)"><path fill="#C0C0C0" stroke="none" d="M 423 608.5 L 440 591 L 456 608.5 L 440 625 L 423 608.5" opacity="0.2"/></g><g transform="translate(10,-110) scale(1,1)"><path fill="#ffffff" stroke="none" d="M 416 601 L 432.5 584 L 449 601 L 432.5 618 L 416 601"/></g><g transform="translate(10,-110) scale(1,1)"><path fill="none" stroke="#000000" d="M 416 601 L 432.5 584 L 449 601 L 432.5 618 L 416 601 L 416 601" stroke-miterlimit="10"/></g><g transform="translate(10,-110) scale(1,1)"><path fill="none" stroke="#000000" d="M 277 603 L 415 601" stroke-miterlimit="10"/></g><g transform="translate(10,-110) scale(1,1)"><path fill="none" stroke="#000000" d="M 404.89939335563434 605.3563454197064 L 415 601 L 404.7773911602058 596.9381939351365" stroke-miterlimit="10"/></g><g transform="translate(10,-110) scale(1,1)"><path fill="none" stroke="#000000" d="M 415 587 L 392 568 L 293 552" stroke-miterlimit="10"/></g><g transform="translate(10,-110) scale(1,1)"><path fill="none" stroke="#000000" d="M 303.70410759197455 549.4658175560089 L 293 552 L 302.3608846557456 557.7770094739257" stroke-miterlimit="10"/></g><g transform="translate(10,-110) scale(1,1)"><g><path fill="none" stroke="none"/><text fill="#000000" stroke="none" font-family="Arial" font-size="10px" font-style="normal" font-weight="normal" text-decoration="none" x="292.641845703125" y="566">SALDO NEGATIVO</text></g></g><g transform="translate(10,-110) scale(1,1)"><path fill="#C0C0C0" stroke="none" d="M 617 583 L 710.23486328125 583 Q 720.23486328125 583 720.23486328125 593 L 720.23486328125 613 Q 720.23486328125 623 710.23486328125 623 L 617 623 Q 607 623 607 613 L 607 593 Q 607 583 617 583 Z" opacity="0.2"/></g><g transform="translate(10,-110) scale(1,1)"><path fill="#ffffff" stroke="none" d="M 610 576 L 703.23486328125 576 Q 713.23486328125 576 713.23486328125 586 L 713.23486328125 606 Q 713.23486328125 616 703.23486328125 616 L 610 616 Q 600 616 600 606 L 600 586 Q 600 576 610 576 Z"/></g><g transform="translate(10,-110) scale(1,1)"><path fill="none" stroke="#000000" d="M 610 576 L 703.23486328125 576 Q 713.23486328125 576 713.23486328125 586 L 713.23486328125 606 Q 713.23486328125 616 703.23486328125 616 L 610 616 Q 600 616 600 606 L 600 586 Q 600 576 610 576 Z" stroke-miterlimit="10"/></g><g transform="translate(10,-110) scale(1,1)"><g><path fill="none" stroke="none"/><text fill="#000000" stroke="none" font-family="Arial" font-size="13px" font-style="normal" font-weight="bold" text-decoration="none" x="604.5" y="594">APAGAR CONTA</text></g></g><g transform="translate(10,-110) scale(1,1)"><path fill="none" stroke="#000000" d="M 450 593 L 488 576 L 256 489 L 228 385" stroke-miterlimit="10"/></g><g transform="translate(10,-110) scale(1,1)"><path fill="none" stroke="#000000" d="M 234.7068025632395 393.71887603867174 L 228 385 L 226.57724920127632 395.9076019438157" stroke-miterlimit="10"/></g><g transform="translate(10,-110) scale(1,1)"><g><path fill="none" stroke="none"/><text fill="#000000" stroke="none" font-family="Arial" font-size="10px" font-style="normal" font-weight="normal" text-decoration="none" x="404.086669921875" y="558">SALDO POSITIVO</text></g></g><g transform="translate(10,-110) scale(1,1)"><path fill="none" stroke="#000000" d="M 450 601 L 599 597" stroke-miterlimit="10"/></g><g transform="translate(10,-110) scale(1,1)"><path fill="none" stroke="#000000" d="M 588.9539517129789 601.4807269292874 L 599 597 L 588.7280187357757 593.0647235284641" stroke-miterlimit="10"/></g><g transform="translate(10,-110) scale(1,1)"><g><path fill="none" stroke="none"/><text fill="#000000" stroke="none" font-family="Arial" font-size="10px" font-style="normal" font-weight="normal" text-decoration="none" x="489.16943359375" y="598">SALDO NULO</text></g></g><g transform="translate(10,-110) scale(1,1)"><path fill="none" stroke="#000000" d="M 656 575 L 660 354" stroke-miterlimit="10"/></g><g transform="translate(10,-110) scale(1,1)"><path fill="none" stroke="#000000" d="M 664.0249187247248 364.23718854272795 L 660 354 L 655.6072618851294 364.0848327628257" stroke-miterlimit="10"/></g><g transform="translate(10,-110) scale(1,1)"><path fill="#C0C0C0" stroke="none" d="M 79 304.5 C 79 299.2532944 83.2532944 295 88.5 295 C 93.7467056 295 98 299.2532944 98 304.5 C 98 309.7467056 93.7467056 314 88.5 314 C 83.2532944 314 79 309.7467056 79 304.5 Z" opacity="0.2"/></g><g transform="translate(10,-110) scale(1,1)"><path fill="#000000" stroke="none" d="M 72 297.5 C 72 292.2532944 76.2532944 288 81.5 288 C 86.7467056 288 91 292.2532944 91 297.5 C 91 302.7467056 86.7467056 307 81.5 307 C 76.2532944 307 72 302.7467056 72 297.5 Z"/></g><g transform="translate(10,-110) scale(1,1)"><path fill="#C0C0C0" stroke="none" d="M 153 279 L 275.97998046875 279 Q 285.97998046875 279 285.97998046875 289 L 285.97998046875 309 Q 285.97998046875 319 275.97998046875 319 L 153 319 Q 143 319 143 309 L 143 289 Q 143 279 153 279 Z" opacity="0.2"/></g><g transform="translate(10,-110) scale(1,1)"><path fill="#ffffff" stroke="none" d="M 146 272 L 268.97998046875 272 Q 278.97998046875 272 278.97998046875 282 L 278.97998046875 302 Q 278.97998046875 312 268.97998046875 312 L 146 312 Q 136 312 136 302 L 136 282 Q 136 272 146 272 Z"/></g><g transform="translate(10,-110) scale(1,1)"><path fill="none" stroke="#000000" d="M 146 272 L 268.97998046875 272 Q 278.97998046875 272 278.97998046875 282 L 278.97998046875 302 Q 278.97998046875 312 268.97998046875 312 L 146 312 Q 136 312 136 302 L 136 282 Q 136 272 146 272 Z" stroke-miterlimit="10"/></g><g transform="translate(10,-110) scale(1,1)"><g><path fill="none" stroke="none"/><text fill="#000000" stroke="none" font-family="Arial" font-size="13px" font-style="normal" font-weight="bold" text-decoration="none" x="142.121826171875" y="290">PEDIR EMPRESTIMO</text></g></g><g transform="translate(10,-110) scale(1,1)"><path fill="none" stroke="#000000" d="M 92 297 L 135 295" stroke-miterlimit="10"/></g><g transform="translate(10,-110) scale(1,1)"><path fill="none" stroke="#000000" d="M 125.04388004198225 299.677143934236 L 135 295 L 124.65271987089511 291.26720025586275" stroke-miterlimit="10"/></g><g transform="translate(10,-110) scale(1,1)"><path fill="#C0C0C0" stroke="none" d="M 327 252.5 L 339.5 239 L 351 252.5 L 339.5 265 L 327 252.5" opacity="0.2"/></g><g transform="translate(10,-110) scale(1,1)"><path fill="#ffffff" stroke="none" d="M 320 245 L 332 232 L 344 245 L 332 258 L 320 245"/></g><g transform="translate(10,-110) scale(1,1)"><path fill="none" stroke="#000000" d="M 320 245 L 332 232 L 344 245 L 332 258 L 320 245 L 320 245" stroke-miterlimit="10"/></g><g transform="translate(10,-110) scale(1,1)"><path fill="none" stroke="#000000" d="M 263 271 L 319 250" stroke-miterlimit="10"/></g><g transform="translate(10,-110) scale(1,1)"><path fill="none" stroke="#000000" d="M 310.96245137057895 257.50984767020555 L 319 250 L 308.0063306467394 249.62685907330007" stroke-miterlimit="10"/></g><g transform="translate(10,-110) scale(1,1)"><path fill="none" stroke="#000000" d="M 319 243 L 112 216 L 24 256 L 32 480 L 152 519" stroke-miterlimit="10"/></g><g transform="translate(10,-110) scale(1,1)"><path fill="none" stroke="#000000" d="M 141.0338466713218 519.8622535427123 L 152 519 L 143.63605329060618 511.8554639449142" stroke-miterlimit="10"/></g><g transform="translate(10,-110) scale(1,1)"><g><path fill="none" stroke="none"/><text fill="#000000" stroke="none" font-family="Arial" font-size="13px" font-style="normal" font-weight="normal" text-decoration="none" x="159.5" y="219">Saldo já estava negativo</text></g></g><g transform="translate(10,-110) scale(1,1)"><path fill="#C0C0C0" stroke="none" d="M 313 311 L 371.4482421875 311 Q 381.4482421875 311 381.4482421875 321 L 381.4482421875 340 Q 381.4482421875 350 371.4482421875 350 L 313 350 Q 303 350 303 340 L 303 321 Q 303 311 313 311 Z" opacity="0.2"/></g><g transform="translate(10,-110) scale(1,1)"><path fill="#ffffff" stroke="none" d="M 306 304 L 364.4482421875 304 Q 374.4482421875 304 374.4482421875 314 L 374.4482421875 333 Q 374.4482421875 343 364.4482421875 343 L 306 343 Q 296 343 296 333 L 296 314 Q 296 304 306 304 Z"/></g><g transform="translate(10,-110) scale(1,1)"><path fill="none" stroke="#000000" d="M 306 304 L 364.4482421875 304 Q 374.4482421875 304 374.4482421875 314 L 374.4482421875 333 Q 374.4482421875 343 364.4482421875 343 L 306 343 Q 296 343 296 333 L 296 314 Q 296 304 306 304 Z" stroke-miterlimit="10"/></g><g transform="translate(10,-110) scale(1,1)"><g><path fill="none" stroke="none"/><text fill="#000000" stroke="none" font-family="Arial" font-size="10px" font-style="normal" font-weight="bold" text-decoration="none" x="301.61083984375" y="319">EMPRESTIMO</text></g></g><g transform="translate(10,-110) scale(1,1)"><path fill="none" stroke="#000000" d="M 333 259 L 334 303" stroke-miterlimit="10"/></g><g transform="translate(10,-110) scale(1,1)"><path fill="none" stroke="#000000" d="M 329.56065873692773 292.93559494306874 L 334 303 L 337.9775207532446 292.7443026245161" stroke-miterlimit="10"/></g><g transform="translate(10,-110) scale(1,1)"><g><path fill="none" stroke="none"/><text fill="#000000" stroke="none" font-family="Arial" font-size="10px" font-style="normal" font-weight="normal" text-decoration="none" x="347.086669921875" y="274">SALDO POSITIVO</text></g></g><g transform="translate(10,-110) scale(1,1)"><path fill="none" stroke="#000000" d="M 337 344 L 344 424 L 421 463" stroke-miterlimit="10"/></g><g transform="translate(10,-110) scale(1,1)"><path fill="none" stroke="#000000" d="M 410.0318612362089 462.16338057742917 L 421 463 L 413.8359339701005 454.65277543615605" stroke-miterlimit="10"/></g><g transform="translate(10,-110) scale(1,1)"><path fill="#ffffff" stroke="none" d="M 0 192 L 117 192 L 127 202 L 127 254 L 0 254 L 0 192"/></g><g transform="translate(10,-110) scale(1,1)"><path fill="none" stroke="#000000" d="M 0 192 L 117 192 L 127 202 L 127 254 L 0 254 L 0 192 L 0 192" stroke-miterlimit="10"/></g><g transform="translate(10,-110) scale(1,1)"><path fill="none" stroke="#000000" d="M 117 192 L 117 202 L 127 202 L 117 192" stroke-miterlimit="10"/></g><g transform="translate(10,-110) scale(1,1)"><g><path fill="none" stroke="none"/><text fill="#000000" stroke="none" font-family="Arial" font-size="13px" font-style="normal" font-weight="normal" text-decoration="none" x="5" y="207">Se o saldo for zero,</text><text fill="#000000" stroke="none" font-family="Arial" font-size="13px" font-style="normal" font-weight="normal" text-decoration="none" x="5" y="220">pedir para o usuario</text><text fill="#000000" stroke="none" font-family="Arial" font-size="13px" font-style="normal" font-weight="normal" text-decoration="none" x="5" y="233">realizar um deposito</text></g></g></g></svg>