<svg version="1.1" xmlns="http://www.w3.org/2000/svg" xmlns:xlink="http://www.w3.org/1999/xlink" width="720" height="588"><defs/><g><text fill="#eeeeee" stroke="none" font-family="Arial" font-size="24px" font-style="normal" font-weight="normal" text-decoration="none" x="0" y="0">UNREGISTERED</text><text fill="#eeeeee" stroke="none" font-family="Arial" font-size="24px" font-style="normal" font-weight="normal" text-decoration="none" x="0" y="30">UNREGISTERED</text><text fill="#eeeeee" stroke="none" font-family="Arial" font-size="24px" font-style="normal" font-weight="normal" text-decoration="none" x="0" y="60">UNREGISTERED</text><text fill="#eeeeee" stroke="none" font-family="Arial" font-size="24px" font-style="normal" font-weight="normal" text-decoration="none" x="0" y="90">UNREGISTERED</text><text fill="#eeeeee" stroke="none" font-family="Arial" font-size="24px" font-style="normal" font-weight="normal" text-decoration="none" x="0" y="120">UNREGISTERED</text><text fill="#eeeeee" stroke="none" font-family="Arial" font-size="24px" font-style="normal" font-weight="normal" text-decoration="none" x="0" y="150">UNREGISTERED</text><text fill="#eeeeee" stroke="none" font-family="Arial" font-size="24px" font-style="normal" font-weight="normal" text-decoration="none" x="0" y="180">UNREGISTERED</text><text fill="#eeeeee" stroke="none" font-family="Arial" font-size="24px" font-style="normal" font-weight="normal" text-decoration="none" x="0" y="210">UNREGISTERED</text><text fill="#eeeeee" stroke="none" font-family="Arial" font-size="24px" font-style="normal" font-weight="normal" text-decoration="none" x="0" y="240">UNREGISTERED</text><text fill="#eeeeee" stroke="none" font-family="Arial" font-size="24px" font-style="normal" font-weight="normal" text-decoration="none" x="0" y="270">UNREGISTERED</text><text fill="#eeeeee" stroke="none" font-family="Arial" font-size="24px" font-style="normal" font-weight="normal" text-decoration="none" x="0" y="300">UNREGISTERED</text><text fill="#eeeeee" stroke="none" font-family="Arial" font-size="24px" font-style="normal" font-weight="normal" text-decoration="none" x="0" y="330">UNREGISTERED</text><text fill="#eeeeee" stroke="none" font-family="Arial" font-size="24px" font-style="normal" font-weight="normal" text-decoration="none" x="0" y="360">UNREGISTERED</text><text fill="#eeeeee" stroke="none" font-family="Arial" font-size="24px" font-style="normal" font-weight="normal" text-decoration="none" x="0" y="390">UNREGISTERED</text><text fill="#eeeeee" stroke="none" font-family="Arial" font-size="24px" font-style="normal" font-weight="normal" text-decoration="none" x="0" y="420">UNREGISTERED</text><text fill="#eeeeee" stroke="none" font-family="Arial" font-size="24px" font-style="normal" font-weight="normal" text-decoration="none" x="0" y="450">UNREGISTERED</text><text fill="#eeeeee" stroke="none" font-family="Arial" font-size="24px" font-style="normal" font-weight="normal" text-decoration="none" x="0" y="480">UNREGISTERED</text><text fill="#eeeeee" stroke="none" font-family="Arial" font-size="24px" font-style="normal" font-weight="normal" text-decoration="none" x="0" y="510">UNREGISTERED</text><text fill="#eeeeee" stroke="none" font-family="Arial" font-size="24px" font-style="normal" font-weight="normal" text-decoration="none" x="0" y="540">UNREGISTERED</text><text fill="#eeeeee" stroke="none" font-family="Arial" font-size="24px" font-style="normal" font-weight="normal" text-decoration="none" x="0" y="570">UNREGISTERED</text><text fill="#eeeeee" stroke="none" font-family="Arial" font-size="24px" font-style="normal" font-weight="normal" text-decoration="none" x="200" y="0">UNREGISTERED</text><text fill="#eeeeee" stroke="none" font-family="Arial" font-size="24px" font-style="normal" font-weight="normal" text-decoration="none" x="200" y="30">UNREGISTERED</text><text fill="#eeeeee" stroke="none" font-family="Arial" font-size="24px" font-style="normal" font-weight="normal" text-decoration="none" x="200" y="60">UNREGISTERED</text><text fill="#eeeeee" stroke="none" font-family="Arial" font-size="24px" font-style="normal" font-weight="normal" text-decoration="none" x="200" y="90">UNREGISTERED</text><text fill="#eeeeee" stroke="none" font-family="Arial" font-size="24px" font-style="normal" font-weight="normal" text-decoration="none" x="200" y="120">UNREGISTERED</text><text fill="#eeeeee" stroke="none" font-family="Arial" font-size="24px" font-style="normal" font-weight="normal" text-decoration="none" x="200" y="150">UNREGISTERED</text><text fill="#eeeeee" stroke="none" font-family="Arial" font-size="24px" font-style="normal" font-weight="normal" text-decoration="none" x="200" y="180">UNREGISTERED</text><text fill="#eeeeee" stroke="none" font-family="Arial" font-size="24px" font-style="normal" font-weight="normal" text-decoration="none" x="200" y="210">UNREGISTERED</text><text fill="#eeeeee" stroke="none" font-family="Arial" font-size="24px" font-style="normal" font-weight="normal" text-decoration="none" x="200" y="240">UNREGISTERED</text><text fill="#eeeeee" stroke="none" font-family="Arial" font-size="24px" font-style="normal" font-weight="normal" text-decoration="none" x="200" y="270">UNREGISTERED</text><text fill="#eeeeee" stroke="none" font-family="Arial" font-size="24px" font-style="normal" font-weight="normal" text-decoration="none" x="200" y="300">UNREGISTERED</text><text fill="#eeeeee" stroke="none" font-family="Arial" font-size="24px" font-style="normal" font-weight="normal" text-decoration="none" x="200" y="330">UNREGISTERED</text><text fill="#eeeeee" stroke="none" font-family="Arial" font-size="24px" font-style="normal" font-weight="normal" text-decoration="none" x="200" y="360">UNREGISTERED</text><text fill="#eeeeee" stroke="none" font-family="Arial" font-size="24px" font-style="normal" font-weight="normal" text-decoration="none" x="200" y="390">UNREGISTERED</text><text fill="#eeeeee" stroke="none" font-family="Arial" font-size="24px" font-style="normal" font-weight="normal" text-decoration="none" x="200" y="420">UNREGISTERED</text><text fill="#eeeeee" stroke="none" font-family="Arial" font-size="24px" font-style="normal" font-weight="normal" text-decoration="none" x="200" y="450">UNREGISTERED</text><text fill="#eeeeee" stroke="none" font-family="Arial" font-size="24px" font-style="normal" font-weight="normal" text-decoration="none" x="200" y="480">UNREGISTERED</text><text fill="#eeeeee" stroke="none" font-family="Arial" font-size="24px" font-style="normal" font-weight="normal" text-decoration="none" x="200" y="510">UNREGISTERED</text><text fill="#eeeeee" stroke="none" font-family="Arial" font-size="24px" font-style="normal" font-weight="normal" text-decoration="none" x="200" y="540">UNREGISTERED</text><text fill="#eeeeee" stroke="none" font-family="Arial" font-size="24px" font-style="normal" font-weight="normal" text-decoration="none" x="200" y="570">UNREGISTERED</text><text fill="#eeeeee" stroke="none" font-family="Arial" font-size="24px" font-style="normal" font-weight="normal" text-decoration="none" x="400" y="0">UNREGISTERED</text><text fill="#eeeeee" stroke="none" font-family="Arial" font-size="24px" font-style="normal" font-weight="normal" text-decoration="none" x="400" y="30">UNREGISTERED</text><text fill="#eeeeee" stroke="none" font-family="Arial" font-size="24px" font-style="normal" font-weight="normal" text-decoration="none" x="400" y="60">UNREGISTERED</text><text fill="#eeeeee" stroke="none" font-family="Arial" font-size="24px" font-style="normal" font-weight="normal" text-decoration="none" x="400" y="90">UNREGISTERED</text><text fill="#eeeeee" stroke="none" font-family="Arial" font-size="24px" font-style="normal" font-weight="normal" text-decoration="none" x="400" y="120">UNREGISTERED</text><text fill="#eeeeee" stroke="none" font-family="Arial" font-size="24px" font-style="normal" font-weight="normal" text-decoration="none" x="400" y="150">UNREGISTERED</text><text fill="#eeeeee" stroke="none" font-family="Arial" font-size="24px" font-style="normal" font-weight="normal" text-decoration="none" x="400" y="180">UNREGISTERED</text><text fill="#eeeeee" stroke="none" font-family="Arial" font-size="24px" font-style="normal" font-weight="normal" text-decoration="none" x="400" y="210">UNREGISTERED</text><text fill="#eeeeee" stroke="none" font-family="Arial" font-size="24px" font-style="normal" font-weight="normal" text-decoration="none" x="400" y="240">UNREGISTERED</text><text fill="#eeeeee" stroke="none" font-family="Arial" font-size="24px" font-style="normal" font-weight="normal" text-decoration="none" x="400" y="270">UNREGISTERED</text><text fill="#eeeeee" stroke="none" font-family="Arial" font-size="24px" font-style="normal" font-weight="normal" text-decoration="none" x="400" y="300">UNREGISTERED</text><text fill="#eeeeee" stroke="none" font-family="Arial" font-size="24px" font-style="normal" font-weight="normal" text-decoration="none" x="400" y="330">UNREGISTERED</text><text fill="#eeeeee" stroke="none" font-family="Arial" font-size="24px" font-style="normal" font-weight="normal" text-decoration="none" x="400" y="360">UNREGISTERED</text><text fill="#eeeeee" stroke="none" font-family="Arial" font-size="24px" font-style="normal" font-weight="normal" text-decoration="none" x="400" y="390">UNREGISTERED</text><text fill="#eeeeee" stroke="none" font-family="Arial" font-size="24px" font-style="normal" font-weight="normal" text-decoration="none" x="400" y="420">UNREGISTERED</text><text fill="#eeeeee" stroke="none" font-family="Arial" font-size="24px" font-style="normal" font-weight="normal" text-decoration="none" x="400" y="450">UNREGISTERED</text><text fill="#eeeeee" stroke="none" font-family="Arial" font-size="24px" font-style="normal" font-weight="normal" text-decoration="none" x="400" y="480">UNREGISTERED</text><text fill="#eeeeee" stroke="none" font-family="Arial" font-size="24px" font-style="normal" font-weight="normal" text-decoration="none" x="400" y="510">UNREGISTERED</text><text fill="#eeeeee" stroke="none" font-family="Arial" font-size="24px" font-style="normal" font-weight="normal" text-decoration="none" x="400" y="540">UNREGISTERED</text><text fill="#eeeeee" stroke="none" font-family="Arial" font-size="24px" font-style="normal" font-weight="normal" text-decoration="none" x="400" y="570">UNREGISTERED</text><text fill="#eeeeee" stroke="none" font-family="Arial" font-size="24px" font-style="normal" font-weight="normal" text-decoration="none" x="600" y="0">UNREGISTERED</text><text fill="#eeeeee" stroke="none" font-family="Arial" font-size="24px" font-style="normal" font-weight="normal" text-decoration="none" x="600" y="30">UNREGISTERED</text><text fill="#eeeeee" stroke="none" font-family="Arial" font-size="24px" font-style="normal" font-weight="normal" text-decoration="none" x="600" y="60">UNREGISTERED</text><text fill="#eeeeee" stroke="none" font-family="Arial" font-size="24px" font-style="normal" font-weight="normal" text-decoration="none" x="600" y="90">UNREGISTERED</text><text fill="#eeeeee" stroke="none" font-family="Arial" font-size="24px" font-style="normal" font-weight="normal" text-decoration="none" x="600" y="120">UNREGISTERED</text><text fill="#eeeeee" stroke="none" font-family="Arial" font-size="24px" font-style="normal" font-weight="normal" text-decoration="none" x="600" y="150">UNREGISTERED</text><text fill="#eeeeee" stroke="none" font-family="Arial" font-size="24px" font-style="normal" font-weight="normal" text-decoration="none" x="600" y="180">UNREGISTERED</text><text fill="#eeeeee" stroke="none" font-family="Arial" font-size="24px" font-style="normal" font-weight="normal" text-decoration="none" x="600" y="210">UNREGISTERED</text><text fill="#eeeeee" stroke="none" font-family="Arial" font-size="24px" font-style="normal" font-weight="normal" text-decoration="none" x="600" y="240">UNREGISTERED</text><text fill="#eeeeee" stroke="none" font-family="Arial" font-size="24px" font-style="normal" font-weight="normal" text-decoration="none" x="600" y="270">UNREGISTERED</text><text fill="#eeeeee" stroke="none" font-family="Arial" font-size="24px" font-style="normal" font-weight="normal" text-decoration="none" x="600" y="300">UNREGISTERED</text><text fill="#eeeeee" stroke="none" font-family="Arial" font-size="24px" font-style="normal" font-weight="normal" text-decoration="none" x="600" y="330">UNREGISTERED</text><text fill="#eeeeee" stroke="none" font-family="Arial" font-size="24px" font-style="normal" font-weight="normal" text-decoration="none" x="600" y="360">UNREGISTERED</text><text fill="#eeeeee" stroke="none" font-family="Arial" font-size="24px" font-style="normal" font-weight="normal" text-decoration="none" x="600" y="390">UNREGISTERED</text><text fill="#eeeeee" stroke="none" font-family="Arial" font-size="24px" font-style="normal" font-weight="normal" text-decoration="none" x="600" y="420">UNREGISTERED</text><text fill="#eeeeee" stroke="none" font-family="Arial" font-size="24px" font-style="normal" font-weight="normal" text-decoration="none" x="600" y="450">UNREGISTERED</text><text fill="#eeeeee" stroke="none" font-family="Arial" font-size="24px" font-style="normal" font-weight="normal" text-decoration="none" x="600" y="480">UNREGISTERED</text><text fill="#eeeeee" stroke="none" font-family="Arial" font-size="24px" font-style="normal" font-weight="normal" text-decoration="none" x="600" y="510">UNREGISTERED</text><text fill="#eeeeee" stroke="none" font-family="Arial" font-size="24px" font-style="normal" font-weight="normal" text-decoration="none" x="600" y="540">UNREGISTERED</text><text fill="#eeeeee" stroke="none" font-family="Arial" font-size="24px" font-style="normal" font-weight="normal" text-decoration="none" x="600" y="570">UNREGISTERED</text><g transform="translate(-6,-22) scale(1,1)"><rect fill="#C0C0C0" stroke="none" x="127" y="111" width="344" height="496" opacity="0.2"/></g><g transform="translate(-6,-22) scale(1,1)"><rect fill="#ffffff" stroke="none" x="120" y="104" width="344" height="496"/></g><g transform="translate(-6,-22) scale(1,1)"><path fill="none" stroke="#000000" d="M 120 104 L 464 104 L 464 600 L 120 600 L 120 104 Z Z" stroke-miterlimit="10"/></g><g transform="translate(-6,-22) scale(1,1)"><g><path fill="none" stroke="none"/><text fill="#000000" stroke="none" font-family="Arial" font-size="13px" font-style="normal" font-weight="bold" text-decoration="none" x="223.385009765625" y="123.5">INTERFACE USUÀRIO</text></g></g><g transform="translate(-6,-22) scale(1,1)"><path fill="#ffffff" stroke="none" d="M 49.08024875710227 257.68 C 49.08024875710227 252.886167936 52.966091082047726 249 57.759521484375 249 C 62.552951886702274 249 66.43879421164773 252.886167936 66.43879421164773 257.68 C 66.43879421164773 262.473832064 62.552951886702274 266.36 57.759521484375 266.36 C 52.966091082047726 266.36 49.08024875710227 262.473832064 49.08024875710227 257.68 Z"/></g><g transform="translate(-6,-22) scale(1,1)"><path fill="none" stroke="#000000" d="M 49.08024875710227 257.68 C 49.08024875710227 252.886167936 52.966091082047726 249 57.759521484375 249 C 62.552951886702274 249 66.43879421164773 252.886167936 66.43879421164773 257.68 C 66.43879421164773 262.473832064 62.552951886702274 266.36 57.759521484375 266.36 C 52.966091082047726 266.36 49.08024875710227 262.473832064 49.08024875710227 257.68 Z" stroke-miterlimit="10"/></g><g transform="translate(-6,-22) scale(1,1)"><path fill="none" stroke="#000000" d="M 57.759521484375 266.36 L 57.759521484375 283.64" stroke-miterlimit="10"/></g><g transform="translate(-6,-22) scale(1,1)"><path fill="none" stroke="#000000" d="M 48.56970330255682 272.84 L 66.94933966619318 272.84" stroke-miterlimit="10"/></g><g transform="translate(-6,-22) scale(1,1)"><path fill="none" stroke="#000000" d="M 57.759521484375 283.64 L 44.995885120738635 301" stroke-miterlimit="10"/></g><g transform="translate(-6,-22) scale(1,1)"><path fill="none" stroke="#000000" d="M 57.759521484375 283.64 L 70.52315784801137 301" stroke-miterlimit="10"/></g><g transform="translate(-6,-22) scale(1,1)"><g><path fill="none" stroke="none"/><text fill="#000000" stroke="none" font-family="Arial" font-size="13px" font-style="normal" font-weight="bold" text-decoration="none" x="29.95361328125" y="320">CLIENTE</text></g></g><g transform="translate(-6,-22) scale(1,1)"><path fill="#C0C0C0" stroke="none" d="M 215 224 C 215 214.6111584 253.5035072 207 301 207 C 348.4964928 207 387 214.6111584 387 224 C 387 233.3888416 348.4964928 241 301 241 C 253.5035072 241 215 233.3888416 215 224 Z" opacity="0.2"/></g><g transform="translate(-6,-22) scale(1,1)"><path fill="#ffffff" stroke="none" d="M 208 217 C 208 207.6111584 246.5035072 200 294 200 C 341.4964928 200 380 207.6111584 380 217 C 380 226.3888416 341.4964928 234 294 234 C 246.5035072 234 208 226.3888416 208 217 Z"/></g><g transform="translate(-6,-22) scale(1,1)"><path fill="none" stroke="#000000" d="M 208 217 C 208 207.6111584 246.5035072 200 294 200 C 341.4964928 200 380 207.6111584 380 217 C 380 226.3888416 341.4964928 234 294 234 C 246.5035072 234 208 226.3888416 208 217 Z" stroke-miterlimit="10"/></g><g transform="translate(-6,-22) scale(1,1)"><g><path fill="none" stroke="none"/><text fill="#000000" stroke="none" font-family="Arial" font-size="13px" font-style="normal" font-weight="bold" text-decoration="none" x="237.78515625" y="222.5">ACESSAR CONTA</text></g></g><g transform="translate(-6,-22) scale(1,1)"><path fill="none" stroke="#000000" d="M 93 277 L 233 235" stroke-miterlimit="10"/></g><g transform="translate(-6,-22) scale(1,1)"><path fill="#C0C0C0" stroke="none" d="M 343 88 C 343 78.6111584 387.5476624 71 442.5 71 C 497.4523376 71 542 78.6111584 542 88 C 542 97.3888416 497.4523376 105 442.5 105 C 387.5476624 105 343 97.3888416 343 88 Z" opacity="0.2"/></g><g transform="translate(-6,-22) scale(1,1)"><path fill="#ffffff" stroke="none" d="M 336 81 C 336 71.6111584 380.5476624 64 435.5 64 C 490.4523376 64 535 71.6111584 535 81 C 535 90.3888416 490.4523376 98 435.5 98 C 380.5476624 98 336 90.3888416 336 81 Z"/></g><g transform="translate(-6,-22) scale(1,1)"><path fill="none" stroke="#000000" d="M 336 81 C 336 71.6111584 380.5476624 64 435.5 64 C 490.4523376 64 535 71.6111584 535 81 C 535 90.3888416 490.4523376 98 435.5 98 C 380.5476624 98 336 90.3888416 336 81 Z" stroke-miterlimit="10"/></g><g transform="translate(-6,-22) scale(1,1)"><g><path fill="none" stroke="none"/><text fill="#000000" stroke="none" font-family="Arial" font-size="13px" font-style="normal" font-weight="bold" text-decoration="none" x="370.382568359375" y="86.5">CRIAR NOVA CONTA</text></g></g><g transform="translate(-6,-22) scale(1,1)"><path fill="#C0C0C0" stroke="none" d="M 31 88 C 31 78.6111584 97.26184959999999 71 179 71 C 260.7381504 71 327 78.6111584 327 88 C 327 97.3888416 260.7381504 105 179 105 C 97.26184959999999 105 31 97.3888416 31 88 Z" opacity="0.2"/></g><g transform="translate(-6,-22) scale(1,1)"><path fill="#ffffff" stroke="none" d="M 24 81 C 24 71.6111584 90.26184959999999 64 172 64 C 253.7381504 64 320 71.6111584 320 81 C 320 90.3888416 253.7381504 98 172 98 C 90.26184959999999 98 24 90.3888416 24 81 Z"/></g><g transform="translate(-6,-22) scale(1,1)"><path fill="none" stroke="#000000" d="M 24 81 C 24 71.6111584 90.26184959999999 64 172 64 C 253.7381504 64 320 71.6111584 320 81 C 320 90.3888416 253.7381504 98 172 98 C 90.26184959999999 98 24 90.3888416 24 81 Z" stroke-miterlimit="10"/></g><g transform="translate(-6,-22) scale(1,1)"><g><path fill="none" stroke="none"/><text fill="#000000" stroke="none" font-family="Arial" font-size="13px" font-style="normal" font-weight="bold" text-decoration="none" x="74.6142578125" y="86.5">VERIFICAR CONTA EXISTENTE</text></g></g><g transform="translate(-6,-22) scale(1,1)"><path fill="none" stroke="#000000" d="M 416 99 L 313 199" stroke-miterlimit="10" stroke-dasharray="3"/></g><g transform="translate(-6,-22) scale(1,1)"><path fill="none" stroke="#000000" d="M 317.35922906976833 188.9006375489694 L 313 199 L 323.2237681107632 194.94111276119418" stroke-miterlimit="10"/></g><g transform="translate(-6,-22) scale(1,1)"><g><path fill="none" stroke="none"/><text fill="#000000" stroke="none" font-family="Arial" font-size="13px" font-style="normal" font-weight="normal" text-decoration="none" x="388.5" y="175">«include»</text></g></g><g transform="translate(-6,-22) scale(1,1)"><path fill="none" stroke="#000000" d="M 173 99 L 176 168 L 251 199" stroke-miterlimit="10" stroke-dasharray="3"/></g><g transform="translate(-6,-22) scale(1,1)"><path fill="none" stroke="#000000" d="M 240.00000310660207 199.00826711775406 L 251 199 L 243.2159818686226 191.22767333867213" stroke-miterlimit="10"/></g><g transform="translate(-6,-22) scale(1,1)"><g><path fill="none" stroke="none"/><text fill="#000000" stroke="none" font-family="Arial" font-size="13px" font-style="normal" font-weight="normal" text-decoration="none" x="192.5" y="140">«include»</text></g></g><g transform="translate(-6,-22) scale(1,1)"><path fill="#C0C0C0" stroke="none" d="M 159 430.5 C 159 421.9395856 196.6080768 415 243 415 C 289.3919232 415 327 421.9395856 327 430.5 C 327 439.0604144 289.3919232 446 243 446 C 196.6080768 446 159 439.0604144 159 430.5 Z" opacity="0.2"/></g><g transform="translate(-6,-22) scale(1,1)"><path fill="#ffffff" stroke="none" d="M 152 423.5 C 152 414.9395856 189.6080768 408 236 408 C 282.3919232 408 320 414.9395856 320 423.5 C 320 432.0604144 282.3919232 439 236 439 C 189.6080768 439 152 432.0604144 152 423.5 Z"/></g><g transform="translate(-6,-22) scale(1,1)"><path fill="none" stroke="#000000" d="M 152 423.5 C 152 414.9395856 189.6080768 408 236 408 C 282.3919232 408 320 414.9395856 320 423.5 C 320 432.0604144 282.3919232 439 236 439 C 189.6080768 439 152 432.0604144 152 423.5 Z" stroke-miterlimit="10"/></g><g transform="translate(-6,-22) scale(1,1)"><g><path fill="none" stroke="none"/><text fill="#000000" stroke="none" font-family="Arial" font-size="10px" font-style="normal" font-weight="bold" text-decoration="none" x="183.587890625" y="427.5">REALIZAR DEPOSITO</text></g></g><g transform="translate(-6,-22) scale(1,1)"><path fill="#C0C0C0" stroke="none" d="M 191 296 C 191 286.6111584 241.36795999999998 279 303.5 279 C 365.63204 279 416 286.6111584 416 296 C 416 305.3888416 365.63204 313 303.5 313 C 241.36795999999998 313 191 305.3888416 191 296 Z" opacity="0.2"/></g><g transform="translate(-6,-22) scale(1,1)"><path fill="#ffffff" stroke="none" d="M 184 289 C 184 279.6111584 234.36795999999998 272 296.5 272 C 358.63204 272 409 279.6111584 409 289 C 409 298.3888416 358.63204 306 296.5 306 C 234.36795999999998 306 184 298.3888416 184 289 Z"/></g><g transform="translate(-6,-22) scale(1,1)"><path fill="none" stroke="#000000" d="M 184 289 C 184 279.6111584 234.36795999999998 272 296.5 272 C 358.63204 272 409 279.6111584 409 289 C 409 298.3888416 358.63204 306 296.5 306 C 234.36795999999998 306 184 298.3888416 184 289 Z" stroke-miterlimit="10"/></g><g transform="translate(-6,-22) scale(1,1)"><g><path fill="none" stroke="none"/><text fill="#000000" stroke="none" font-family="Arial" font-size="13px" font-style="normal" font-weight="bold" text-decoration="none" x="232.106201171875" y="294.5">CONSULTAR SALDO</text></g></g><g transform="translate(-6,-22) scale(1,1)"><path fill="#C0C0C0" stroke="none" d="M 175 358.5 C 175 349.9395856 206.34006399999998 343 245 343 C 283.659936 343 315 349.9395856 315 358.5 C 315 367.0604144 283.659936 374 245 374 C 206.34006399999998 374 175 367.0604144 175 358.5 Z" opacity="0.2"/></g><g transform="translate(-6,-22) scale(1,1)"><path fill="#ffffff" stroke="none" d="M 168 351.5 C 168 342.9395856 199.34006399999998 336 238 336 C 276.659936 336 308 342.9395856 308 351.5 C 308 360.0604144 276.659936 367 238 367 C 199.34006399999998 367 168 360.0604144 168 351.5 Z"/></g><g transform="translate(-6,-22) scale(1,1)"><path fill="none" stroke="#000000" d="M 168 351.5 C 168 342.9395856 199.34006399999998 336 238 336 C 276.659936 336 308 342.9395856 308 351.5 C 308 360.0604144 276.659936 367 238 367 C 199.34006399999998 367 168 360.0604144 168 351.5 Z" stroke-miterlimit="10"/></g><g transform="translate(-6,-22) scale(1,1)"><g><path fill="none" stroke="none"/><text fill="#000000" stroke="none" font-family="Arial" font-size="10px" font-style="normal" font-weight="bold" text-decoration="none" x="193.55419921875" y="355.5">REALIZAR SAQUE</text></g></g><g transform="translate(-6,-22) scale(1,1)"><path fill="#ffffff" stroke="none" d="M 595.6530026633523 449.68 C 595.6530026633523 444.886167936 599.5388449882977 441 604.332275390625 441 C 609.1257057929523 441 613.0115481178977 444.886167936 613.0115481178977 449.68 C 613.0115481178977 454.473832064 609.1257057929523 458.36 604.332275390625 458.36 C 599.5388449882977 458.36 595.6530026633523 454.473832064 595.6530026633523 449.68 Z"/></g><g transform="translate(-6,-22) scale(1,1)"><path fill="none" stroke="#000000" d="M 595.6530026633523 449.68 C 595.6530026633523 444.886167936 599.5388449882977 441 604.332275390625 441 C 609.1257057929523 441 613.0115481178977 444.886167936 613.0115481178977 449.68 C 613.0115481178977 454.473832064 609.1257057929523 458.36 604.332275390625 458.36 C 599.5388449882977 458.36 595.6530026633523 454.473832064 595.6530026633523 449.68 Z" stroke-miterlimit="10"/></g><g transform="translate(-6,-22) scale(1,1)"><path fill="none" stroke="#000000" d="M 604.332275390625 458.36 L 604.332275390625 475.64" stroke-miterlimit="10"/></g><g transform="translate(-6,-22) scale(1,1)"><path fill="none" stroke="#000000" d="M 595.1424572088068 464.84 L 613.5220935724432 464.84" stroke-miterlimit="10"/></g><g transform="translate(-6,-22) scale(1,1)"><path fill="none" stroke="#000000" d="M 604.332275390625 475.64 L 591.5686390269886 493" stroke-miterlimit="10"/></g><g transform="translate(-6,-22) scale(1,1)"><path fill="none" stroke="#000000" d="M 604.332275390625 475.64 L 617.0959117542614 493" stroke-miterlimit="10"/></g><g transform="translate(-6,-22) scale(1,1)"><g><path fill="none" stroke="none"/><text fill="#000000" stroke="none" font-family="Arial" font-size="13px" font-style="normal" font-weight="bold" text-decoration="none" x="580.5" y="512">BANCO</text></g></g><g transform="translate(-6,-22) scale(1,1)"><path fill="#C0C0C0" stroke="none" d="M 519 264 C 519 254.6111584 560.6375136 247 612 247 C 663.3624864 247 705 254.6111584 705 264 C 705 273.3888416 663.3624864 281 612 281 C 560.6375136 281 519 273.3888416 519 264 Z" opacity="0.2"/></g><g transform="translate(-6,-22) scale(1,1)"><path fill="#ffffff" stroke="none" d="M 512 257 C 512 247.6111584 553.6375136 240 605 240 C 656.3624864 240 698 247.6111584 698 257 C 698 266.3888416 656.3624864 274 605 274 C 553.6375136 274 512 266.3888416 512 257 Z"/></g><g transform="translate(-6,-22) scale(1,1)"><path fill="none" stroke="#000000" d="M 512 257 C 512 247.6111584 553.6375136 240 605 240 C 656.3624864 240 698 247.6111584 698 257 C 698 266.3888416 656.3624864 274 605 274 C 553.6375136 274 512 266.3888416 512 257 Z" stroke-miterlimit="10"/></g><g transform="translate(-6,-22) scale(1,1)"><g><path fill="none" stroke="none"/><text fill="#000000" stroke="none" font-family="Arial" font-size="13px" font-style="normal" font-weight="bold" text-decoration="none" x="544.69091796875" y="262.5">VERIFICAR DADOS</text></g></g><g transform="translate(-6,-22) scale(1,1)"><path fill="none" stroke="#000000" d="M 381 228 L 511 245" stroke-miterlimit="10"/></g><g transform="translate(-6,-22) scale(1,1)"><path fill="none" stroke="#000000" d="M 511 267 L 410 277" stroke-miterlimit="10"/></g><g transform="translate(-6,-22) scale(1,1)"><path fill="none" stroke="#000000" d="M 604 439 L 605 275" stroke-miterlimit="10"/></g><g transform="translate(-6,-22) scale(1,1)"><path fill="#C0C0C0" stroke="none" d="M 207 564 C 207 552.4020192 248.6375136 543 300 543 C 351.3624864 543 393 552.4020192 393 564 C 393 575.5979808 351.3624864 585 300 585 C 248.6375136 585 207 575.5979808 207 564 Z" opacity="0.2"/></g><g transform="translate(-6,-22) scale(1,1)"><path fill="#ffffff" stroke="none" d="M 200 557 C 200 545.4020192 241.6375136 536 293 536 C 344.3624864 536 386 545.4020192 386 557 C 386 568.5979808 344.3624864 578 293 578 C 241.6375136 578 200 568.5979808 200 557 Z"/></g><g transform="translate(-6,-22) scale(1,1)"><path fill="none" stroke="#000000" d="M 200 557 C 200 545.4020192 241.6375136 536 293 536 C 344.3624864 536 386 545.4020192 386 557 C 386 568.5979808 344.3624864 578 293 578 C 241.6375136 578 200 568.5979808 200 557 Z" stroke-miterlimit="10"/></g><g transform="translate(-6,-22) scale(1,1)"><g><path fill="none" stroke="none"/><text fill="#000000" stroke="none" font-family="Arial" font-size="13px" font-style="normal" font-weight="bold" text-decoration="none" x="231.732421875" y="562.5">ENCERRAR CONTA</text></g></g><g transform="translate(-6,-22) scale(1,1)"><path fill="none" stroke="#000000" d="M 316 535 L 586 275" stroke-miterlimit="10" stroke-dasharray="3"/></g><g transform="translate(-6,-22) scale(1,1)"><path fill="none" stroke="#000000" d="M 581.5995168749283 285.08145566205394 L 586 275 L 575.759722878895 279.0170542046347" stroke-miterlimit="10"/></g><g transform="translate(-6,-22) scale(1,1)"><path fill="none" stroke="#000000" d="M 57 328 L 56 560 L 199 558" stroke-miterlimit="10"/></g><g transform="translate(-6,-22) scale(1,1)"><path fill="none" stroke="#000000" d="M 93 300 L 193 335" stroke-miterlimit="10"/></g><g transform="translate(-6,-22) scale(1,1)"><path fill="none" stroke="#000000" d="M 253 335 L 279 307" stroke-miterlimit="10" stroke-dasharray="3"/></g><g transform="translate(-6,-22) scale(1,1)"><path fill="none" stroke="#000000" d="M 275.1695039351113 317.3115129780684 L 279 307 L 269.0000895061236 311.58277100829406" stroke-miterlimit="10"/></g><g transform="translate(-6,-22) scale(1,1)"><path fill="none" stroke="#000000" d="M 93 324 L 128 360 L 209 407" stroke-miterlimit="10"/></g><g transform="translate(-6,-22) scale(1,1)"><path fill="none" stroke="#000000" d="M 262 407 L 312 376 L 320 336 L 305 307" stroke-miterlimit="10" stroke-dasharray="3"/></g><g transform="translate(-6,-22) scale(1,1)"><path fill="none" stroke="#000000" d="M 313.4079336867264 314.09271817567935 L 305 307 L 305.9299978065831 317.96061604471896" stroke-miterlimit="10"/></g><g transform="translate(-6,-22) scale(1,1)"><path fill="#ffffff" stroke="none" d="M 593.0802487571023 113.68 C 593.0802487571023 108.886167936 596.9660910820477 105 601.759521484375 105 C 606.5529518867023 105 610.4387942116477 108.886167936 610.4387942116477 113.68 C 610.4387942116477 118.473832064 606.5529518867023 122.36 601.759521484375 122.36 C 596.9660910820477 122.36 593.0802487571023 118.473832064 593.0802487571023 113.68 Z"/></g><g transform="translate(-6,-22) scale(1,1)"><path fill="none" stroke="#000000" d="M 593.0802487571023 113.68 C 593.0802487571023 108.886167936 596.9660910820477 105 601.759521484375 105 C 606.5529518867023 105 610.4387942116477 108.886167936 610.4387942116477 113.68 C 610.4387942116477 118.473832064 606.5529518867023 122.36 601.759521484375 122.36 C 596.9660910820477 122.36 593.0802487571023 118.473832064 593.0802487571023 113.68 Z" stroke-miterlimit="10"/></g><g transform="translate(-6,-22) scale(1,1)"><path fill="none" stroke="#000000" d="M 601.759521484375 122.36 L 601.759521484375 139.64" stroke-miterlimit="10"/></g><g transform="translate(-6,-22) scale(1,1)"><path fill="none" stroke="#000000" d="M 592.5697033025568 128.84 L 610.9493396661932 128.84" stroke-miterlimit="10"/></g><g transform="translate(-6,-22) scale(1,1)"><path fill="none" stroke="#000000" d="M 601.759521484375 139.64 L 588.9958851207386 157" stroke-miterlimit="10"/></g><g transform="translate(-6,-22) scale(1,1)"><path fill="none" stroke="#000000" d="M 601.759521484375 139.64 L 614.5231578480114 157" stroke-miterlimit="10"/></g><g transform="translate(-6,-22) scale(1,1)"><g><path fill="none" stroke="none"/><text fill="#000000" stroke="none" font-family="Arial" font-size="13px" font-style="normal" font-weight="bold" text-decoration="none" x="572.8681640625" y="176">SISTEMA</text></g></g><g transform="translate(-6,-22) scale(1,1)"><path fill="none" stroke="#000000" d="M 567 130 L 483 99" stroke-miterlimit="10"/></g><g transform="translate(-6,-22) scale(1,1)"><path fill="none" stroke="#000000" d="M 577 103 L 544 48 L 384 32 L 250 63" stroke-miterlimit="10"/></g><g transform="translate(-6,-22) scale(1,1)"><path fill="none" stroke="#000000" d="M 602 184 L 604 239" stroke-miterlimit="10"/></g><g transform="translate(-6,-22) scale(1,1)"><path fill="none" stroke="#000000" d="M 599.4239549158333 228.99700987765792 L 604 239 L 607.8374296376205 228.6910653423202" stroke-miterlimit="10"/></g><g transform="translate(-6,-22) scale(1,1)"><path fill="none" stroke="#000000" d="M 93 287 L 183 288" stroke-miterlimit="10"/></g><g transform="translate(-6,-22) scale(1,1)"><path fill="none" stroke="#000000" d="M 295 235 L 296 271" stroke-miterlimit="10"/></g><g transform="translate(-6,-22) scale(1,1)"><path fill="none" stroke="#000000" d="M 291.50991767097923 260.9581296224948 L 296 271 L 299.9257069767938 260.72435769733335" stroke-miterlimit="10"/></g><g transform="translate(-6,-22) scale(1,1)"><path fill="#C0C0C0" stroke="none" d="M 511 360 C 511 350.6111584 558.4578112 343 617 343 C 675.5421888 343 723 350.6111584 723 360 C 723 369.3888416 675.5421888 377 617 377 C 558.4578112 377 511 369.3888416 511 360 Z" opacity="0.2"/></g><g transform="translate(-6,-22) scale(1,1)"><path fill="#ffffff" stroke="none" d="M 504 353 C 504 343.6111584 551.4578112 336 610 336 C 668.5421888 336 716 343.6111584 716 353 C 716 362.3888416 668.5421888 370 610 370 C 551.4578112 370 504 362.3888416 504 353 Z"/></g><g transform="translate(-6,-22) scale(1,1)"><path fill="none" stroke="#000000" d="M 504 353 C 504 343.6111584 551.4578112 336 610 336 C 668.5421888 336 716 343.6111584 716 353 C 716 362.3888416 668.5421888 370 610 370 C 551.4578112 370 504 362.3888416 504 353 Z" stroke-miterlimit="10"/></g><g transform="translate(-6,-22) scale(1,1)"><g><path fill="none" stroke="none"/><text fill="#000000" stroke="none" font-family="Arial" font-size="13px" font-style="normal" font-weight="bold" text-decoration="none" x="539.582275390625" y="358.5">CONSULTAR DEBITOS</text></g></g><g transform="translate(-6,-22) scale(1,1)"><path fill="none" stroke="#000000" d="M 327 535 L 582 371" stroke-miterlimit="10" stroke-dasharray="3"/></g><g transform="translate(-6,-22) scale(1,1)"><path fill="none" stroke="#000000" d="M 575.7294962872624 380.0377421510322 L 582 371 L 571.1754355416574 372.95673306487816" stroke-miterlimit="10"/></g><g transform="translate(-6,-22) scale(1,1)"><g><path fill="none" stroke="none"/><text fill="#000000" stroke="none" font-family="Arial" font-size="13px" font-style="normal" font-weight="normal" text-decoration="none" x="358.5" y="443">«include»</text></g></g><g transform="translate(-6,-22) scale(1,1)"><path fill="none" stroke="#000000" d="M 309 351 L 503 352" stroke-miterlimit="10" stroke-dasharray="3"/></g><g transform="translate(-6,-22) scale(1,1)"><path fill="none" stroke="#000000" d="M 492.81576189549946 356.1570776070263 L 503 352 L 492.8591584092422 347.7381539409363" stroke-miterlimit="10"/></g><g transform="translate(-6,-22) scale(1,1)"><g><path fill="none" stroke="none"/><text fill="#000000" stroke="none" font-family="Arial" font-size="13px" font-style="normal" font-weight="normal" text-decoration="none" x="379.5" y="326">«extend»</text></g></g><g transform="translate(-6,-22) scale(1,1)"><path fill="#ffffff" stroke="none" d="M 16 128 L 125 128 L 135 138 L 135 203 L 16 203 L 16 128"/></g><g transform="translate(-6,-22) scale(1,1)"><path fill="none" stroke="#000000" d="M 16 128 L 125 128 L 135 138 L 135 203 L 16 203 L 16 128 L 16 128" stroke-miterlimit="10"/></g><g transform="translate(-6,-22) scale(1,1)"><path fill="none" stroke="#000000" d="M 125 128 L 125 138 L 135 138 L 125 128" stroke-miterlimit="10"/></g><g transform="translate(-6,-22) scale(1,1)"><g><path fill="none" stroke="none"/><text fill="#000000" stroke="none" font-family="Arial" font-size="13px" font-style="normal" font-weight="normal" text-decoration="none" x="21" y="143">Todos os dados</text><text fill="#000000" stroke="none" font-family="Arial" font-size="13px" font-style="normal" font-weight="normal" text-decoration="none" x="21" y="156">serão validados</text><text fill="#000000" stroke="none" font-family="Arial" font-size="13px" font-style="normal" font-weight="normal" text-decoration="none" x="21" y="169">em todas entradas</text><text fill="#000000" stroke="none" font-family="Arial" font-size="13px" font-style="normal" font-weight="normal" text-decoration="none" x="21" y="182">do úsuario</text></g></g><g transform="translate(-6,-22) scale(1,1)"><path fill="#C0C0C0" stroke="none" d="M 167 504 C 167 494.6111584 202.3695008 487 246 487 C 289.63049920000003 487 325 494.6111584 325 504 C 325 513.3888416 289.63049920000003 521 246 521 C 202.3695008 521 167 513.3888416 167 504 Z" opacity="0.2"/></g><g transform="translate(-6,-22) scale(1,1)"><path fill="#ffffff" stroke="none" d="M 160 497 C 160 487.6111584 195.3695008 480 239 480 C 282.63049920000003 480 318 487.6111584 318 497 C 318 506.3888416 282.63049920000003 514 239 514 C 195.3695008 514 160 506.3888416 160 497 Z"/></g><g transform="translate(-6,-22) scale(1,1)"><path fill="none" stroke="#000000" d="M 160 497 C 160 487.6111584 195.3695008 480 239 480 C 282.63049920000003 480 318 487.6111584 318 497 C 318 506.3888416 282.63049920000003 514 239 514 C 195.3695008 514 160 506.3888416 160 497 Z" stroke-miterlimit="10"/></g><g transform="translate(-6,-22) scale(1,1)"><g><path fill="none" stroke="none"/><text fill="#000000" stroke="none" font-family="Arial" font-size="10px" font-style="normal" font-weight="bold" text-decoration="none" x="188.716796875" y="501">PEDIR EMPRESTIMO</text></g></g><g transform="translate(-6,-22) scale(1,1)"><path fill="none" stroke="#000000" d="M 67 328 L 96 440 L 194 479" stroke-miterlimit="10"/></g><g transform="translate(-6,-22) scale(1,1)"><path fill="none" stroke="#000000" d="M 236 407 L 238 368" stroke-miterlimit="10"/></g><g transform="translate(-6,-22) scale(1,1)"><path fill="#FFFFFF" stroke="none" d="M 245.3670291598035 388.7298548320678 L 238 368 L 228.55105535132822 387.86749720086397"/></g><g transform="translate(-6,-22) scale(1,1)"><path fill="none" stroke="#000000" d="M 245.3670291598035 388.7298548320678 L 238 368 L 228.55105535132822 387.86749720086397 L 245.3670291598035 388.7298548320678" stroke-miterlimit="10"/></g><g transform="translate(-6,-22) scale(1,1)"><path fill="none" stroke="#000000" d="M 238 479 L 237 440" stroke-miterlimit="10"/></g><g transform="translate(-6,-22) scale(1,1)"><path fill="#FFFFFF" stroke="none" d="M 245.9372608524107 460.1028696572397 L 237 440 L 229.1047222980292 460.53447320991614"/></g><g transform="translate(-6,-22) scale(1,1)"><path fill="none" stroke="#000000" d="M 245.9372608524107 460.1028696572397 L 237 440 L 229.1047222980292 460.53447320991614 L 245.9372608524107 460.1028696572397" stroke-miterlimit="10"/></g><g transform="translate(-6,-22) scale(1,1)"><path fill="none" stroke="#000000" d="M 268 479 L 384 408 L 536 371" stroke-miterlimit="10" stroke-dasharray="3"/></g><g transform="translate(-6,-22) scale(1,1)"><path fill="none" stroke="#000000" d="M 527.1212742201783 377.49370684022074 L 536 371 L 525.1300486510347 369.3135369345498" stroke-miterlimit="10"/></g><g transform="translate(-6,-22) scale(1,1)"><g><path fill="none" stroke="none"/><text fill="#000000" stroke="none" font-family="Arial" font-size="13px" font-style="normal" font-weight="normal" text-decoration="none" x="383.5" y="395">«include»</text></g></g></g></svg>